# 3ds Max Wavefront OBJ Exporter v0.97b - (c)2007 guruware
# File Created: 30.04.2019 18:57:38

mtllib stair_straight_low.mtl

#
# object straightstair_low
#

v  -9.0857 8.4550 -8.6521
v  -8.2698 8.0939 -8.6520
v  -8.2696 8.0939 -10.5701
v  -9.0855 8.4550 -10.5701
v  -9.0076 7.4853 -8.6521
v  -8.1501 7.1273 -8.6520
v  -8.9592 7.4853 -6.7340
v  -8.1502 7.1273 -6.7340
v  -8.9323 6.5146 -6.7340
v  -8.0510 6.1595 -6.7340
v  -8.8553 6.5146 -4.8160
v  -8.0512 6.1595 -4.8160
v  -8.7717 5.5435 -4.8160
v  -7.9708 5.1912 -4.8160
v  -8.7718 5.5435 -2.8980
v  -7.9709 5.1912 -2.8979
v  -8.7068 4.5723 -2.8879
v  -7.9075 4.2227 -2.8879
v  -8.7069 4.5723 -0.9699
v  -7.9077 4.2227 -0.9699
v  -8.6585 3.6016 -0.9699
v  -7.8596 3.2544 -0.9699
v  -8.6586 3.6016 0.9481
v  -7.8598 3.2544 0.9482
v  -8.6248 2.6317 0.9584
v  -7.8253 2.2867 0.9584
v  -8.6249 2.6317 2.8764
v  -7.8254 2.2867 2.8764
v  -8.6037 1.6631 2.8764
v  -7.8027 1.3202 2.8764
v  -8.6038 1.6632 4.7944
v  -7.8029 1.3202 4.7945
v  -8.5932 0.6964 4.7944
v  -7.7903 0.3551 4.7945
v  -8.5934 0.6964 6.7125
v  -7.7904 0.3551 6.7125
v  -8.5915 -0.2682 6.7125
v  -7.7861 -0.6081 6.7125
v  -8.5916 -0.2682 8.6305
v  -7.7863 -0.6081 8.6305
v  -8.5964 -1.2301 8.6305
v  -7.7885 -1.5689 8.6305
v  -8.5966 -1.2301 10.4657
v  -7.7887 -1.5689 10.5486
v  -8.6018 -1.8385 10.5486
v  -7.7958 -2.5269 10.6998
v  -7.7943 -2.5269 -10.5498
v  -8.3405 -2.5186 -10.5498
v  8.2299 8.0909 -8.6508
v  8.2300 8.0909 -10.5689
v  8.1110 7.1245 -8.6508
v  8.1109 7.1245 -6.7328
v  8.0124 6.1570 -6.7328
v  8.0122 6.1570 -4.8147
v  7.9324 5.1889 -4.8147
v  7.9322 5.1889 -2.8967
v  7.8693 4.2206 -2.8867
v  7.8692 4.2206 -0.9687
v  7.8215 3.2526 -0.9687
v  7.8213 3.2526 0.9494
v  7.7871 2.2852 0.9596
v  7.7869 2.2852 2.8777
v  7.7644 1.3189 2.8777
v  7.7643 1.3189 4.7957
v  7.7517 0.3540 4.7957
v  7.7516 0.3540 6.7137
v  7.7473 -0.6089 6.7137
v  7.7472 -0.6089 8.6318
v  7.7495 -1.5695 8.6318
v  7.7493 -1.5695 10.5498
v  7.7564 -2.5274 10.7010
v  7.7580 -2.5274 -10.5486
v  9.0872 8.4550 -8.6508
v  9.0873 8.4550 -10.5688
v  9.0350 7.4853 -8.6508
v  8.9604 7.4853 -6.7328
v  8.8563 6.5146 -6.7328
v  8.8561 6.5146 -4.8147
v  8.7726 5.5435 -4.8047
v  8.7724 5.5435 -2.8867
v  8.7074 4.5723 -2.8867
v  8.7072 4.5723 -0.9686
v  8.6587 3.6016 -0.9584
v  8.6586 3.6016 0.9597
v  8.6247 2.6317 0.9597
v  8.6246 2.6317 2.8777
v  8.6033 1.6631 2.8777
v  8.6032 1.6631 4.7957
v  8.5926 0.6964 4.7957
v  8.5924 0.6964 6.7138
v  8.5905 -0.2682 6.7138
v  8.5904 -0.2682 8.6318
v  8.5952 -1.2301 8.6318
v  8.5951 -1.2301 10.4533
v  8.6011 -1.8385 10.5498
v  8.6019 -2.4957 -9.7324
v  -6.8698 -7.6668 -8.3529
v  -6.8704 -7.6668 8.3797
v  6.8852 -7.6668 8.3968
v  6.8672 -7.6668 -8.2374
v  -6.3031 -7.6668 8.7952
v  -6.5401 -7.6668 -8.7963
v  5.6123 -7.6668 -8.7953
v  6.3196 -7.6668 8.7963
# 104 vertices

vn 0.4047 0.9145 0.0000
vn 0.2069 0.9784 0.0000
vn -0.0000 -0.0000 1.0000
vn 0.3992 0.9169 -0.0028
vn 0.1994 0.9799 -0.0036
vn 0.3853 0.9227 -0.0097
vn 0.3952 0.9186 -0.0043
vn 0.2065 0.9784 0.0000
vn 0.1948 0.9808 -0.0056
vn 0.3737 0.9274 -0.0150
vn 0.4027 0.9154 0.0000
vn 0.2058 0.9786 0.0000
vn 0.4027 0.9153 0.0000
vn 0.0046 0.0106 0.9999
vn 0.4008 0.9162 0.0000
vn 0.2048 0.9788 0.0000
vn 0.3986 0.9171 0.0000
vn 0.2036 0.9790 0.0000
vn 0.0046 0.0108 0.9999
vn 0.0046 0.0107 0.9999
vn 0.3962 0.9182 0.0000
vn 0.2023 0.9793 0.0000
vn 0.3937 0.9193 0.0000
vn 0.2010 0.9796 0.0000
vn 0.3911 0.9203 0.0000
vn 0.1996 0.9799 0.0000
vn -0.0000 0.0000 1.0000
vn 0.3888 0.9213 0.0000
vn 0.1984 0.9801 0.0000
vn 0.3867 0.9222 0.0000
vn 0.1912 0.9816 0.0000
vn 0.1973 0.9804 0.0000
vn -0.0518 0.1561 0.9864
vn -0.0449 0.1352 0.9898
vn -0.0008 -0.0019 -1.0000
vn 0.0000 -0.0018 -1.0000
vn -0.1994 0.9799 -0.0000
vn -0.0001 0.0000 1.0000
vn -0.0001 -0.0000 1.0000
vn -0.1891 0.9819 -0.0051
vn -0.1990 0.9800 -0.0000
vn -0.1976 0.9803 -0.0000
vn -0.0001 0.0103 0.9999
vn -0.1973 0.9803 -0.0000
vn -0.1968 0.9804 -0.0000
vn -0.1954 0.9807 -0.0000
vn -0.0001 0.0106 0.9999
vn -0.1948 0.9808 -0.0000
vn -0.1935 0.9811 -0.0000
vn -0.1921 0.9814 -0.0000
vn -0.1908 0.9816 -0.0000
vn -0.1831 0.9831 -0.0000
vn -0.1897 0.9818 -0.0000
vn -0.0001 0.1560 0.9878
vn -0.0001 0.1559 0.9878
vn 0.0001 -0.0019 -1.0000
vn -0.3909 0.9204 -0.0000
vn -0.3828 0.9238 -0.0043
vn -0.3637 0.9314 -0.0141
vn -0.3902 0.9207 -0.0000
vn -0.0046 0.0107 0.9999
vn -0.0124 0.0010 0.9999
vn -0.3889 0.9213 -0.0000
vn -0.0123 0.0008 0.9999
vn -0.0045 0.0106 0.9999
vn -0.3870 0.9221 -0.0000
vn -0.0046 0.0108 0.9999
vn -0.0125 0.0006 0.9999
vn -0.3848 0.9230 -0.0000
vn -0.0125 0.0004 0.9999
vn -0.0045 0.0108 0.9999
vn -0.3823 0.9240 -0.0000
vn -0.3797 0.9251 -0.0000
vn -0.3771 0.9262 -0.0000
vn -0.3747 0.9272 -0.0000
vn -0.3725 0.9280 -0.0000
vn 0.0495 0.1570 0.9864
vn 0.0493 0.1561 0.9865
vn 0.6943 -0.0854 -0.7146
vn 0.0009 -0.0019 -1.0000
vn -0.9612 -0.2759 -0.0030
vn -0.9586 -0.2848 -0.0000
vn 0.9583 -0.2856 0.0093
vn 0.9480 -0.3183 -0.0010
vn -0.5066 -0.4288 0.7479
vn -0.5347 -0.4258 0.7300
vn -0.0049 -0.3240 -0.9461
vn -0.7223 -0.4356 -0.5372
vn 0.0001 -0.3229 -0.9464
vn -0.0001 -0.3475 0.9377
vn 0.6438 -0.4039 -0.6500
vn 0.3660 -0.4337 -0.8234
vn 0.4802 -0.4197 0.7702
vn 0.5219 -0.4265 0.7387
vn 0.0000 -1.0000 -0.0000
vn -0.9999 0.0069 -0.0126
vn -0.9811 -0.1937 -0.0001
vn -1.0000 0.0050 -0.0001
vn -0.9997 -0.0189 -0.0121
vn -1.0000 -0.0020 -0.0001
vn -0.9996 -0.0244 -0.0114
vn -0.9999 -0.0109 -0.0001
vn -0.9995 -0.0307 -0.0100
vn -0.9998 -0.0219 -0.0001
vn -0.9994 -0.0349 -0.0001
vn -0.2652 0.8595 0.4369
vn -0.9991 -0.0415 -0.0067
vn -0.9988 -0.0499 -0.0001
vn -0.9978 -0.0668 -0.0001
vn -0.2462 0.8622 0.4426
vn -0.9985 -0.0547 0.0018
vn -0.9955 -0.0857 0.0400
vn -0.9993 -0.0277 0.0252
vn -0.0052 -0.8923 -0.4514
vn -0.9971 -0.0713 0.0252
vn -0.9977 -0.0677 0.0063
vn -0.9968 -0.0803 -0.0001
vn 0.9936 -0.1066 0.0386
vn 0.9963 -0.0858 0.0001
vn 0.9978 -0.0668 0.0001
vn 0.2419 0.8623 0.4448
vn 0.9988 -0.0499 0.0001
vn 0.9994 -0.0349 0.0001
vn 0.2575 0.8605 0.4397
vn 0.9998 -0.0219 0.0001
vn 0.0374 0.8919 0.4508
vn 0.9999 -0.0109 0.0001
vn 1.0000 -0.0020 0.0001
vn 1.0000 0.0050 0.0001
vn 1.0000 0.0100 0.0001
vn 1.0000 0.0089 -0.0002
vn 1.0000 0.0049 0.0000
vn 1.0000 -0.0006 0.0008
vn 1.0000 -0.0068 0.0021
vn 0.9997 -0.0218 0.0071
vn 0.9992 -0.0352 0.0209
vn 0.9965 -0.0505 0.0672
vn 0.9939 -0.0535 0.0959
vn 0.9990 -0.0443 0.0001
# 139 vertex normals

vt 0.6557 0.5381 0.0000
vt 0.6715 0.5371 0.0000
vt 0.6704 0.5708 0.0000
vt 0.6555 0.5708 0.0000
vt 0.6611 0.5236 0.0000
vt 0.6761 0.5220 0.0000
vt 0.6605 0.4920 0.0000
vt 0.6762 0.4902 0.0000
vt 0.6645 0.4778 0.0000
vt 0.6800 0.4758 0.0000
vt 0.6638 0.4464 0.0000
vt 0.6795 0.4443 0.0000
vt 0.6686 0.4322 0.0000
vt 0.6828 0.4299 0.0000
vt 0.6659 0.4006 0.0000
vt 0.6816 0.3982 0.0000
vt 0.6699 0.3859 0.0000
vt 0.6841 0.3833 0.0000
vt 0.6663 0.3539 0.0000
vt 0.6821 0.3513 0.0000
vt 0.6698 0.3383 0.0000
vt 0.6842 0.3361 0.0000
vt 0.6659 0.3049 0.0000
vt 0.6818 0.3029 0.0000
vt 0.6692 0.2878 0.0000
vt 0.6837 0.2858 0.0000
vt 0.6654 0.2532 0.0000
vt 0.6813 0.2512 0.0000
vt 0.6683 0.2352 0.0000
vt 0.6828 0.2327 0.0000
vt 0.6647 0.2004 0.0000
vt 0.6807 0.1978 0.0000
vt 0.6674 0.1823 0.0000
vt 0.6820 0.1798 0.0000
vt 0.6639 0.1473 0.0000
vt 0.6801 0.1448 0.0000
vt 0.6665 0.1291 0.0000
vt 0.6813 0.1266 0.0000
vt 0.6631 0.0940 0.0000
vt 0.6794 0.0916 0.0000
vt 0.6655 0.0760 0.0000
vt 0.6805 0.0737 0.0000
vt 0.6628 0.0427 0.0000
vt 0.6790 0.0392 0.0000
vt 0.6642 0.0320 0.0000
vt 0.6799 0.0217 0.0000
vt 0.3462 0.6678 0.0000
vt 0.3315 0.6614 0.0000
vt 0.3230 0.4707 0.0000
vt 0.3328 0.4709 0.0000
vt 0.9626 0.5545 0.0000
vt 0.9593 0.5885 0.0000
vt 0.9601 0.5375 0.0000
vt 0.9635 0.5036 0.0000
vt 0.9610 0.4864 0.0000
vt 0.9637 0.4522 0.0000
vt 0.9612 0.4347 0.0000
vt 0.9632 0.4000 0.0000
vt 0.9606 0.3822 0.0000
vt 0.9617 0.3472 0.0000
vt 0.9591 0.3290 0.0000
vt 0.9598 0.2945 0.0000
vt 0.9576 0.2775 0.0000
vt 0.9583 0.2439 0.0000
vt 0.9563 0.2275 0.0000
vt 0.9572 0.1935 0.0000
vt 0.9553 0.1761 0.0000
vt 0.9563 0.1415 0.0000
vt 0.9546 0.1239 0.0000
vt 0.9557 0.0892 0.0000
vt 0.9542 0.0717 0.0000
vt 0.9552 0.0374 0.0000
vt 0.9542 0.0200 0.0000
vt 0.0354 0.6613 0.0000
vt 0.0439 0.4707 0.0000
vt 0.9789 0.5575 0.0000
vt 0.9747 0.5906 0.0000
vt 0.9760 0.5407 0.0000
vt 0.9798 0.5067 0.0000
vt 0.9757 0.4894 0.0000
vt 0.9800 0.4549 0.0000
vt 0.9760 0.4372 0.0000
vt 0.9796 0.4023 0.0000
vt 0.9755 0.3845 0.0000
vt 0.9781 0.3494 0.0000
vt 0.9740 0.3315 0.0000
vt 0.9763 0.2972 0.0000
vt 0.9727 0.2803 0.0000
vt 0.9750 0.2465 0.0000
vt 0.9716 0.2297 0.0000
vt 0.9739 0.1955 0.0000
vt 0.9707 0.1782 0.0000
vt 0.9731 0.1436 0.0000
vt 0.9701 0.1260 0.0000
vt 0.9726 0.0913 0.0000
vt 0.9698 0.0737 0.0000
vt 0.9720 0.0409 0.0000
vt 0.9707 0.0303 0.0000
vt 0.0200 0.6678 0.0000
vt 0.0287 0.4713 0.0000
vt 0.3942 0.7955 0.0000
vt 0.0204 0.7834 0.0000
vt 0.0593 0.6922 0.0000
vt 0.3558 0.6922 0.0000
vt 0.6200 0.1117 0.0000
vt 0.2604 0.1233 0.0000
vt 0.2985 0.0200 0.0000
vt 0.5935 0.0200 0.0000
vt 0.6743 0.7128 0.0000
vt 0.6596 0.7254 0.0000
vt 0.6913 0.6189 0.0000
vt 0.7016 0.6189 0.0000
vt 0.3005 0.3785 0.0000
vt 0.3064 0.3785 0.0000
vt 0.0824 0.3785 0.0000
vt 0.9587 0.7128 0.0000
vt 0.9324 0.6189 0.0000
vt 0.0598 0.3785 0.0000
vt 0.9741 0.7254 0.0000
vt 0.9428 0.6189 0.0000
vt 0.6102 0.6265 0.0000
vt 0.6343 0.6174 0.0000
vt 0.6346 0.3443 0.0000
vt 0.3767 0.6265 0.0000
vt 0.3704 0.6192 0.0000
vt 0.6238 0.3378 0.0000
vt 0.3813 0.3378 0.0000
vt 0.3704 0.3446 0.0000
vt 0.3928 0.8062 0.0000
vt 0.3602 0.8062 0.0000
vt 0.3602 0.8233 0.0000
vt 0.3263 0.8233 0.0000
vt 0.3263 0.8404 0.0000
vt 0.2923 0.8404 0.0000
vt 0.2923 0.8575 0.0000
vt 0.2583 0.8575 0.0000
vt 0.2583 0.8747 0.0000
vt 0.2243 0.8747 0.0000
vt 0.2241 0.8919 0.0000
vt 0.1901 0.8919 0.0000
vt 0.1901 0.9091 0.0000
vt 0.1561 0.9091 0.0000
vt 0.1560 0.9263 0.0000
vt 0.1220 0.9263 0.0000
vt 0.1220 0.9435 0.0000
vt 0.0880 0.9435 0.0000
vt 0.0880 0.9607 0.0000
vt 0.0540 0.9607 0.0000
vt 0.0200 0.9779 0.0000
vt 0.0540 0.9779 0.0000
vt 0.6008 0.2887 0.0000
vt 0.5668 0.2887 0.0000
vt 0.5668 0.2715 0.0000
vt 0.5328 0.2715 0.0000
vt 0.5326 0.2542 0.0000
vt 0.4986 0.2542 0.0000
vt 0.4986 0.2370 0.0000
vt 0.4646 0.2370 0.0000
vt 0.4644 0.2198 0.0000
vt 0.4304 0.2198 0.0000
vt 0.4304 0.2026 0.0000
vt 0.3964 0.2026 0.0000
vt 0.3964 0.1854 0.0000
vt 0.3624 0.1854 0.0000
vt 0.3624 0.1683 0.0000
vt 0.3284 0.1683 0.0000
vt 0.3284 0.1512 0.0000
vt 0.2944 0.1512 0.0000
vt 0.2944 0.1341 0.0000
vt 0.2621 0.1341 0.0000
vt 0.6008 0.3059 0.0000
vt 0.6348 0.3059 0.0000
# 172 texture coords

o straightstair_low
g straightstair_low
usemtl wire_086086086
s 268435456
f 1/1/1 2/2/2 3/3/2 
f 3/3/2 4/4/1 1/1/1 
s off
f 5/5/3 6/6/3 2/2/3 
f 2/2/3 1/1/3 5/5/3 
s 268435456
f 7/7/4 8/8/2 6/6/5 
f 6/6/5 5/5/6 7/7/4 
s off
f 9/9/3 10/10/3 8/8/3 
f 8/8/3 7/7/3 9/9/3 
s 268435456
f 11/11/7 12/12/8 10/10/9 
f 10/10/9 9/9/10 11/11/7 
s off
f 13/13/3 14/14/3 12/12/3 
f 12/12/3 11/11/3 13/13/3 
s 268435456
f 15/15/11 16/16/12 14/14/12 
f 14/14/12 13/13/13 15/15/11 
s off
f 17/17/14 18/18/14 16/16/14 
f 16/16/14 15/15/14 17/17/14 
s 268435456
f 19/19/15 20/20/16 18/18/16 
f 18/18/16 17/17/15 19/19/15 
s off
f 21/21/3 22/22/3 20/20/3 
f 20/20/3 19/19/3 21/21/3 
s 268435456
f 23/23/17 24/24/18 22/22/18 
f 22/22/18 21/21/17 23/23/17 
s off
f 25/25/19 26/26/19 24/24/19 
f 24/24/20 23/23/20 25/25/20 
s 268435456
f 27/27/21 28/28/22 26/26/22 
f 26/26/22 25/25/21 27/27/21 
s off
f 29/29/3 30/30/3 28/28/3 
f 28/28/3 27/27/3 29/29/3 
s 268435456
f 31/31/23 32/32/24 30/30/24 
f 30/30/24 29/29/23 31/31/23 
s off
f 33/33/3 34/34/3 32/32/3 
f 32/32/3 31/31/3 33/33/3 
s 268435456
f 35/35/25 36/36/26 34/34/26 
f 34/34/26 33/33/25 35/35/25 
s off
f 37/37/3 38/38/3 36/36/3 
f 36/36/27 35/35/27 37/37/27 
s 268435456
f 39/39/28 40/40/29 38/38/29 
f 38/38/29 37/37/28 39/39/28 
s off
f 41/41/3 42/42/3 40/40/3 
f 40/40/3 39/39/3 41/41/3 
s 268435456
f 43/43/30 44/44/31 42/42/32 
f 42/42/32 41/41/30 43/43/30 
s off
f 45/45/33 46/46/33 44/44/33 
f 44/44/34 43/43/34 45/45/34 
f 4/47/35 3/48/35 47/49/35 
f 47/49/36 48/50/36 4/47/36 
s 268435456
f 49/51/37 50/52/37 3/3/2 
f 3/3/2 2/2/2 49/51/37 
s off
f 51/53/38 49/51/38 2/2/38 
f 2/2/39 6/6/39 51/53/39 
s 268435456
f 52/54/37 51/53/40 6/6/5 
f 6/6/5 8/8/2 52/54/37 
s off
f 53/55/38 52/54/38 8/8/38 
f 8/8/39 10/10/39 53/55/39 
s 268435456
f 54/56/41 53/55/41 10/10/9 
f 10/10/9 12/12/8 54/56/41 
s off
f 55/57/38 54/56/38 12/12/38 
f 12/12/39 14/14/39 55/57/39 
s 268435456
f 56/58/41 55/57/42 14/14/12 
f 14/14/12 16/16/12 56/58/41 
s off
f 57/59/43 56/58/43 16/16/43 
f 16/16/43 18/18/43 57/59/43 
s 268435456
f 58/60/44 57/59/44 18/18/16 
f 18/18/16 20/20/16 58/60/44 
s off
f 59/61/38 58/60/38 20/20/38 
f 20/20/39 22/22/39 59/61/39 
s 268435456
f 60/62/45 59/61/46 22/22/18 
f 22/22/18 24/24/18 60/62/45 
s off
f 61/63/47 60/62/47 24/24/47 
f 24/24/47 26/26/47 61/63/47 
s 268435456
f 62/64/48 61/63/48 26/26/22 
f 26/26/22 28/28/22 62/64/48 
s off
f 63/65/38 62/64/38 28/28/38 
f 28/28/39 30/30/39 63/65/39 
s 268435456
f 64/66/49 63/65/49 30/30/24 
f 30/30/24 32/32/24 64/66/49 
s off
f 65/67/38 64/66/38 32/32/38 
f 32/32/39 34/34/39 65/67/39 
s 268435456
f 66/68/50 65/67/50 34/34/26 
f 34/34/26 36/36/26 66/68/50 
s off
f 67/69/38 66/68/38 36/36/38 
f 36/36/39 38/38/39 67/69/39 
s 268435456
f 68/70/51 67/69/51 38/38/29 
f 38/38/29 40/40/29 68/70/51 
s off
f 69/71/39 68/70/39 40/40/39 
f 40/40/39 42/42/39 69/71/39 
s 268435456
f 70/72/52 69/71/53 42/42/32 
f 42/42/32 44/44/31 70/72/52 
s off
f 71/73/54 70/72/54 44/44/54 
f 44/44/55 46/46/55 71/73/55 
f 50/74/56 72/75/56 47/49/56 
f 47/49/56 3/48/56 50/74/56 
s 268435456
f 73/76/57 74/77/57 50/52/37 
f 50/52/37 49/51/37 73/76/57 
s off
f 75/78/27 73/76/27 49/51/27 
f 49/51/27 51/53/27 75/78/27 
s 268435456
f 76/79/58 75/78/59 51/53/40 
f 51/53/40 52/54/37 76/79/58 
s off
f 77/80/27 76/79/27 52/54/27 
f 52/54/27 53/55/27 77/80/27 
s 268435456
f 78/81/60 77/80/60 53/55/41 
f 53/55/41 54/56/41 78/81/60 
s off
f 79/82/61 78/81/61 54/56/61 
f 54/56/62 55/57/62 79/82/62 
s 268435456
f 80/83/63 79/82/63 55/57/42 
f 55/57/42 56/58/41 80/83/63 
s off
f 81/84/64 80/83/64 56/58/64 
f 56/58/65 57/59/65 81/84/65 
s 268435456
f 82/85/66 81/84/66 57/59/44 
f 57/59/44 58/60/44 82/85/66 
s off
f 83/86/67 82/85/67 58/60/67 
f 58/60/68 59/61/68 83/86/68 
s 268435456
f 84/87/69 83/86/69 59/61/46 
f 59/61/46 60/62/45 84/87/69 
s off
f 85/88/70 84/87/70 60/62/70 
f 60/62/71 61/63/71 85/88/71 
s 268435456
f 86/89/72 85/88/72 61/63/48 
f 61/63/48 62/64/48 86/89/72 
s off
f 87/90/27 86/89/27 62/64/27 
f 62/64/27 63/65/27 87/90/27 
s 268435456
f 88/91/73 87/90/73 63/65/49 
f 63/65/49 64/66/49 88/91/73 
s off
f 89/92/3 88/91/3 64/66/3 
f 64/66/27 65/67/27 89/92/27 
s 268435456
f 90/93/74 89/92/74 65/67/50 
f 65/67/50 66/68/50 90/93/74 
s off
f 91/94/27 90/93/27 66/68/27 
f 66/68/3 67/69/3 91/94/3 
s 268435456
f 92/95/75 91/94/75 67/69/51 
f 67/69/51 68/70/51 92/95/75 
s off
f 93/96/27 92/95/27 68/70/27 
f 68/70/27 69/71/27 93/96/27 
s 268435456
f 94/97/76 93/96/76 69/71/53 
f 69/71/53 70/72/52 94/97/76 
s off
f 95/98/77 94/97/77 70/72/77 
f 70/72/78 71/73/78 95/98/78 
f 74/99/79 96/100/79 72/75/79 
f 72/75/80 50/74/80 74/99/80 
f 45/101/81 48/102/81 97/103/81 
f 97/103/82 98/104/82 45/101/82 
f 96/105/83 95/106/83 99/107/83 
f 99/107/84 100/108/84 96/105/84 
f 46/109/85 45/110/85 98/111/85 
f 98/111/86 101/112/86 46/109/86 
f 48/50/87 47/49/87 102/113/87 
f 102/113/88 97/114/88 48/50/88 
f 47/49/89 72/75/89 103/115/89 
f 103/115/89 102/113/89 47/49/89 
f 71/116/90 46/109/90 101/112/90 
f 101/112/90 104/117/90 71/116/90 
f 72/75/91 96/100/91 100/118/91 
f 100/118/92 103/115/92 72/75/92 
f 95/119/93 71/116/93 104/117/93 
f 104/117/94 99/120/94 95/119/94 
f 103/121/95 100/122/95 99/123/95 
f 102/124/95 103/121/95 99/123/95 
f 97/125/95 102/124/95 99/123/95 
f 97/125/95 99/123/95 104/126/95 
f 97/125/95 104/126/95 101/127/95 
f 97/125/95 101/127/95 98/128/95 
f 48/102/96 45/101/96 43/129/96 
f 48/102/97 43/129/97 41/130/97 
f 41/130/98 39/131/98 37/132/98 
f 48/102/99 41/130/99 37/132/99 
f 37/132/100 35/133/100 33/134/100 
f 48/102/101 37/132/101 33/134/101 
f 33/134/102 31/135/102 29/136/102 
f 48/102/103 33/134/103 29/136/103 
f 29/136/104 27/137/104 25/138/104 
f 25/138/105 23/139/105 21/140/105 
f 29/136/106 25/138/106 21/140/106 
f 48/102/107 29/136/107 21/140/107 
f 21/140/108 19/141/108 17/142/108 
f 17/142/109 15/143/109 13/144/109 
f 21/140/110 17/142/110 13/144/110 
f 48/102/111 21/140/111 13/144/111 
f 13/144/112 11/145/112 9/146/112 
f 9/146/113 7/147/113 5/148/113 
f 13/144/114 9/146/114 5/148/114 
f 48/102/115 13/144/115 5/148/115 
f 4/149/116 48/102/116 5/148/116 
f 1/150/117 4/149/117 5/148/117 
f 75/151/118 76/152/118 77/153/118 
f 77/153/119 78/154/119 79/155/119 
f 79/155/120 80/156/120 81/157/120 
f 77/153/121 79/155/121 81/157/121 
f 81/157/122 82/158/122 83/159/122 
f 83/159/123 84/160/123 85/161/123 
f 81/157/124 83/159/124 85/161/124 
f 85/161/125 86/162/125 87/163/125 
f 81/157/126 85/161/126 87/163/126 
f 87/163/127 88/164/127 89/165/127 
f 89/165/128 90/166/128 91/167/128 
f 91/167/129 92/168/129 93/169/129 
f 93/169/130 94/170/130 95/106/130 
f 93/169/131 95/106/131 96/105/131 
f 91/167/132 93/169/132 96/105/132 
f 89/165/133 91/167/133 96/105/133 
f 87/163/134 89/165/134 96/105/134 
f 81/157/135 87/163/135 96/105/135 
f 77/153/136 81/157/136 96/105/136 
f 75/151/137 77/153/137 96/105/137 
f 73/171/138 75/151/138 96/105/138 
f 73/171/139 96/105/139 74/172/139 
# 204 faces

