# 3ds Max Wavefront OBJ Exporter v0.97b - (c)2007 guruware
# File Created: 30.04.2019 12:09:22

mtllib floor20_low.mtl

#
# object floor20_low
#

v  -393.7008 0.0000 395.4881
v  393.7008 0.0000 395.4881
v  -393.7008 0.0000 -391.9135
v  393.7008 0.0000 -391.9135
v  -393.7008 118.1102 395.4881
v  393.7008 118.1102 395.4881
v  -393.7008 118.1102 -391.9135
v  393.7008 118.1102 -391.9135
v  -350.1494 118.1102 351.9366
v  350.1494 118.1102 351.9366
v  350.1494 118.1102 -348.3621
v  -350.1494 118.1102 -348.3621
v  -342.5197 118.1102 395.4881
v  -304.6299 118.1102 351.9366
v  -393.7008 118.1102 -340.7324
v  -350.1494 118.1102 -302.8427
v  -393.7008 118.1102 351.3148
v  -350.1494 118.1102 312.6499
v  -346.4567 118.1102 -391.9135
v  -308.1314 118.1102 -348.3621
v  345.5905 118.1102 -391.9135
v  307.3611 118.1102 -348.3621
v  393.7008 118.1102 344.3070
v  350.1494 118.1102 306.4172
v  393.7008 118.1102 -347.7403
v  350.1494 118.1102 -309.0753
v  349.5276 118.1102 395.4881
v  310.8626 118.1102 351.9366
v  -393.7008 215.4188 395.4881
v  -342.5197 176.9336 395.4881
v  -304.6299 143.8323 351.9366
v  -350.1494 157.4513 351.9366
v  -350.1494 143.8323 312.6499
v  -393.7008 176.9336 351.3148
v  393.7008 215.4188 395.4881
v  393.7008 176.9336 344.3070
v  350.1494 143.8323 306.4172
v  350.1494 157.4513 351.9366
v  310.8626 143.8323 351.9366
v  349.5276 176.9336 395.4881
v  393.7008 215.4188 -391.9135
v  345.5905 176.9336 -391.9135
v  307.3611 143.8323 -348.3621
v  350.1494 157.4513 -348.3621
v  350.1494 143.8323 -309.0753
v  393.7008 176.9336 -347.7403
v  -393.7008 215.4188 -391.9135
v  -393.7008 176.9336 -340.7324
v  -350.1494 143.8323 -302.8427
v  -350.1494 157.4513 -348.3621
v  -308.1314 143.8323 -348.3621
v  -346.4567 176.9336 -391.9135
# 52 vertices

vn 0.0000 -1.0000 -0.0000
vn 0.0000 -1.0000 -0.0000
vn 0.0000 -1.0000 -0.0000
vn 0.0000 -1.0000 -0.0000
vn 0.0000 -1.0000 -0.0000
vn 0.0000 -1.0000 -0.0000
vn 0.0000 0.0000 1.0000
vn 0.0000 0.0000 1.0000
vn 0.0000 0.0000 1.0000
vn 0.0000 0.0000 1.0000
vn 0.0000 0.0000 1.0000
vn 0.0000 0.0000 1.0000
vn 0.0000 0.0000 1.0000
vn 0.0000 0.0000 1.0000
vn 0.0000 0.0000 1.0000
vn 0.0000 0.0000 1.0000
vn 0.0000 0.0000 1.0000
vn 0.0000 0.0000 1.0000
vn 1.0000 0.0000 -0.0000
vn 1.0000 0.0000 -0.0000
vn 1.0000 0.0000 -0.0000
vn 1.0000 0.0000 -0.0000
vn 1.0000 0.0000 -0.0000
vn 1.0000 0.0000 -0.0000
vn 1.0000 0.0000 -0.0000
vn 1.0000 0.0000 -0.0000
vn 1.0000 0.0000 -0.0000
vn 1.0000 0.0000 -0.0000
vn 1.0000 0.0000 -0.0000
vn 1.0000 0.0000 -0.0000
vn 0.0000 0.0000 -1.0000
vn 0.0000 0.0000 -1.0000
vn 0.0000 0.0000 -1.0000
vn 0.0000 0.0000 -1.0000
vn 0.0000 0.0000 -1.0000
vn 0.0000 0.0000 -1.0000
vn 0.0000 0.0000 -1.0000
vn 0.0000 0.0000 -1.0000
vn 0.0000 0.0000 -1.0000
vn 0.0000 0.0000 -1.0000
vn 0.0000 0.0000 -1.0000
vn 0.0000 0.0000 -1.0000
vn -1.0000 0.0000 -0.0000
vn -1.0000 0.0000 -0.0000
vn -1.0000 0.0000 -0.0000
vn -1.0000 0.0000 -0.0000
vn -1.0000 0.0000 -0.0000
vn -1.0000 0.0000 -0.0000
vn -1.0000 0.0000 -0.0000
vn -1.0000 0.0000 -0.0000
vn -1.0000 0.0000 -0.0000
vn -1.0000 0.0000 -0.0000
vn -1.0000 0.0000 -0.0000
vn -1.0000 0.0000 -0.0000
vn 0.2585 0.8641 -0.4318
vn 0.2585 0.8641 -0.4318
vn 0.2585 0.8641 -0.4318
vn 0.5454 0.7253 -0.4200
vn 0.5454 0.7253 -0.4200
vn 0.5454 0.7253 -0.4200
vn -0.4318 0.8641 -0.2585
vn -0.4318 0.8641 -0.2585
vn -0.4318 0.8641 -0.2585
vn -0.4200 0.7253 -0.5454
vn -0.4200 0.7253 -0.5454
vn -0.4200 0.7253 -0.5454
vn -0.2757 0.8663 0.4164
vn -0.2757 0.8663 0.4164
vn -0.2757 0.8663 0.4164
vn -0.5770 0.7213 0.3831
vn -0.5770 0.7213 0.3831
vn -0.5770 0.7213 0.3831
vn 0.4318 0.8641 0.2585
vn 0.4318 0.8641 0.2585
vn 0.4318 0.8641 0.2585
vn 0.4200 0.7253 0.5454
vn 0.4200 0.7253 0.5454
vn 0.4200 0.7253 0.5454
vn 0.0000 1.0000 -0.0000
vn 0.0000 1.0000 -0.0000
vn 0.0000 1.0000 -0.0000
vn 0.0000 1.0000 -0.0000
vn 0.0000 1.0000 -0.0000
vn 0.0000 1.0000 -0.0000
vn 0.0000 1.0000 -0.0000
vn 0.0000 1.0000 -0.0000
vn 0.0000 1.0000 -0.0000
vn 0.0000 1.0000 -0.0000
vn 0.0000 1.0000 -0.0000
vn 0.0000 1.0000 -0.0000
vn 0.3275 0.7124 -0.6207
vn 0.3275 0.7124 -0.6207
vn 0.3275 0.7124 -0.6207
vn 0.3930 0.8688 -0.3012
vn 0.3930 0.8688 -0.3012
vn 0.3930 0.8688 -0.3012
vn 0.5863 0.7198 0.3717
vn 0.5863 0.7198 0.3717
vn 0.5863 0.7198 0.3717
vn 0.2810 0.8669 0.4116
vn 0.2810 0.8669 0.4116
vn 0.2810 0.8669 0.4116
vn 0.0000 1.0000 -0.0000
vn 0.0000 1.0000 -0.0000
vn 0.0000 1.0000 -0.0000
vn 0.0000 1.0000 -0.0000
vn 0.0000 1.0000 -0.0000
vn 0.0000 1.0000 -0.0000
vn 0.0000 1.0000 -0.0000
vn 0.0000 1.0000 -0.0000
vn 0.0000 1.0000 -0.0000
vn 0.0000 1.0000 -0.0000
vn 0.0000 1.0000 -0.0000
vn 0.0000 1.0000 -0.0000
vn -0.3275 0.7124 0.6207
vn -0.3275 0.7124 0.6207
vn -0.3275 0.7124 0.6207
vn -0.3930 0.8688 0.3012
vn -0.3930 0.8688 0.3012
vn -0.3930 0.8688 0.3012
vn -0.6207 0.7124 -0.3275
vn -0.6207 0.7124 -0.3275
vn -0.6207 0.7124 -0.3275
vn -0.3012 0.8688 -0.3930
vn -0.3012 0.8688 -0.3930
vn -0.3012 0.8688 -0.3930
vn 0.0000 0.0000 1.0000
vn 0.0000 0.0000 1.0000
vn 0.0000 0.0000 1.0000
vn 0.0000 0.0000 1.0000
vn 0.0000 0.0000 1.0000
vn 0.0000 0.0000 1.0000
vn 0.7544 0.0000 0.6564
vn 0.7544 0.0000 0.6564
vn 0.7544 0.0000 0.6564
vn 0.7544 0.0000 0.6564
vn 0.7544 0.0000 0.6564
vn 0.7544 0.0000 0.6564
vn 0.0000 0.0000 -1.0000
vn 0.0000 0.0000 -1.0000
vn 0.0000 0.0000 -1.0000
vn 0.0000 0.0000 -1.0000
vn 0.0000 0.0000 -1.0000
vn 0.0000 0.0000 -1.0000
vn 1.0000 0.0000 -0.0000
vn 1.0000 0.0000 -0.0000
vn 1.0000 0.0000 -0.0000
vn 1.0000 0.0000 -0.0000
vn 1.0000 0.0000 -0.0000
vn 1.0000 0.0000 -0.0000
vn -0.6639 0.0000 -0.7478
vn -0.6639 0.0000 -0.7478
vn -0.6639 0.0000 -0.7478
vn -0.6639 0.0000 -0.7478
vn -0.6639 0.0000 -0.7478
vn -0.6639 0.0000 -0.7478
vn -1.0000 0.0000 -0.0000
vn -1.0000 0.0000 -0.0000
vn -1.0000 0.0000 -0.0000
vn -1.0000 0.0000 -0.0000
vn -1.0000 0.0000 -0.0000
vn -1.0000 0.0000 -0.0000
vn 1.0000 0.0000 -0.0000
vn 1.0000 0.0000 -0.0000
vn 1.0000 0.0000 -0.0000
vn 1.0000 0.0000 -0.0000
vn 1.0000 0.0000 -0.0000
vn 1.0000 0.0000 -0.0000
vn 0.6564 0.0000 -0.7544
vn 0.6564 0.0000 -0.7544
vn 0.6564 0.0000 -0.7544
vn 0.6564 0.0000 -0.7544
vn 0.6564 0.0000 -0.7544
vn 0.6564 0.0000 -0.7544
vn -1.0000 0.0000 -0.0000
vn -1.0000 0.0000 -0.0000
vn -1.0000 0.0000 -0.0000
vn -1.0000 0.0000 -0.0000
vn -1.0000 0.0000 -0.0000
vn -1.0000 0.0000 -0.0000
vn 0.0000 0.0000 -1.0000
vn 0.0000 0.0000 -1.0000
vn 0.0000 0.0000 -1.0000
vn 0.0000 0.0000 -1.0000
vn 0.0000 0.0000 -1.0000
vn 0.0000 0.0000 -1.0000
vn -0.7478 0.0000 0.6639
vn -0.7478 0.0000 0.6639
vn -0.7478 0.0000 0.6639
vn -0.7478 0.0000 0.6639
vn -0.7478 0.0000 0.6639
vn -0.7478 0.0000 0.6639
vn 0.0000 0.0000 1.0000
vn 0.0000 0.0000 1.0000
vn 0.0000 0.0000 1.0000
vn 0.0000 0.0000 1.0000
vn 0.0000 0.0000 1.0000
vn 0.0000 0.0000 1.0000
vn 0.0000 0.0000 -1.0000
vn 0.0000 0.0000 -1.0000
vn 0.0000 0.0000 -1.0000
vn 0.0000 0.0000 -1.0000
vn 0.0000 0.0000 -1.0000
vn 0.0000 0.0000 -1.0000
vn -0.7515 0.0000 -0.6597
vn -0.7515 0.0000 -0.6597
vn -0.7515 0.0000 -0.6597
vn -0.7515 0.0000 -0.6597
vn -0.7515 0.0000 -0.6597
vn -0.7515 0.0000 -0.6597
vn 0.0000 0.0000 1.0000
vn 0.0000 0.0000 1.0000
vn 0.0000 0.0000 1.0000
vn 0.0000 0.0000 1.0000
vn 0.0000 0.0000 1.0000
vn 0.0000 0.0000 1.0000
vn -1.0000 0.0000 -0.0000
vn -1.0000 0.0000 -0.0000
vn -1.0000 0.0000 -0.0000
vn -1.0000 0.0000 -0.0000
vn -1.0000 0.0000 -0.0000
vn -1.0000 0.0000 -0.0000
vn 0.6639 0.0000 0.7478
vn 0.6639 0.0000 0.7478
vn 0.6639 0.0000 0.7478
vn 0.6639 0.0000 0.7478
vn 0.6639 0.0000 0.7478
vn 0.6639 0.0000 0.7478
vn 1.0000 0.0000 -0.0000
vn 1.0000 0.0000 -0.0000
vn 1.0000 0.0000 -0.0000
vn 1.0000 0.0000 -0.0000
vn 1.0000 0.0000 -0.0000
vn 1.0000 0.0000 -0.0000
vn -1.0000 0.0000 -0.0000
vn -1.0000 0.0000 -0.0000
vn -1.0000 0.0000 -0.0000
vn -1.0000 0.0000 -0.0000
vn -1.0000 0.0000 -0.0000
vn -1.0000 0.0000 -0.0000
vn -0.6564 0.0000 0.7544
vn -0.6564 0.0000 0.7544
vn -0.6564 0.0000 0.7544
vn -0.6564 0.0000 0.7544
vn -0.6564 0.0000 0.7544
vn -0.6564 0.0000 0.7544
vn 1.0000 0.0000 -0.0000
vn 1.0000 0.0000 -0.0000
vn 1.0000 0.0000 -0.0000
vn 1.0000 0.0000 -0.0000
vn 1.0000 0.0000 -0.0000
vn 1.0000 0.0000 -0.0000
vn 0.0000 0.0000 1.0000
vn 0.0000 0.0000 1.0000
vn 0.0000 0.0000 1.0000
vn 0.0000 0.0000 1.0000
vn 0.0000 0.0000 1.0000
vn 0.0000 0.0000 1.0000
vn 0.7507 0.0000 -0.6606
vn 0.7507 0.0000 -0.6606
vn 0.7507 0.0000 -0.6606
vn 0.7507 0.0000 -0.6606
vn 0.7507 0.0000 -0.6606
vn 0.7507 0.0000 -0.6606
vn 0.0000 0.0000 -1.0000
vn 0.0000 0.0000 -1.0000
vn 0.0000 0.0000 -1.0000
vn 0.0000 0.0000 -1.0000
vn 0.0000 0.0000 -1.0000
vn 0.0000 0.0000 -1.0000
vn 0.0000 1.0000 -0.0000
vn 0.0000 1.0000 -0.0000
vn 0.0000 1.0000 -0.0000
vn 0.0000 1.0000 -0.0000
vn 0.0000 1.0000 -0.0000
vn 0.0000 1.0000 -0.0000
vn 0.0000 1.0000 -0.0000
vn 0.0000 1.0000 -0.0000
vn 0.0000 1.0000 -0.0000
vn 0.0000 1.0000 -0.0000
vn 0.0000 1.0000 -0.0000
vn 0.0000 1.0000 -0.0000
vn 0.0000 1.0000 -0.0000
vn 0.0000 1.0000 -0.0000
vn 0.0000 1.0000 -0.0000
vn 0.0000 1.0000 -0.0000
vn 0.0000 1.0000 -0.0000
vn 0.0000 1.0000 -0.0000
vn 0.0000 1.0000 -0.0000
vn 0.0000 1.0000 -0.0000
vn 0.0000 1.0000 -0.0000
vn 0.0000 1.0000 -0.0000
vn 0.0000 1.0000 -0.0000
vn 0.0000 1.0000 -0.0000
vn 0.0000 1.0000 -0.0000
vn 0.0000 1.0000 -0.0000
vn 0.0000 1.0000 -0.0000
vn 0.0000 1.0000 -0.0000
vn 0.0000 1.0000 -0.0000
vn 0.0000 1.0000 -0.0000
# 300 vertex normals

vt 0.4799 0.5111 0.0000
vt 0.0200 0.4967 0.0000
vt 0.0211 0.0377 0.0000
vt 0.4800 0.0263 0.0000
vt 0.1052 0.6483 0.0000
vt 0.0776 0.7022 0.0000
vt 0.0805 0.5415 0.0000
vt 0.1032 0.8055 0.0000
vt 0.5144 0.0544 0.0000
vt 0.5219 0.0655 0.0000
vt 0.5226 0.4690 0.0000
vt 0.5148 0.4833 0.0000
vt 0.9796 0.0200 0.0000
vt 0.9452 0.0544 0.0000
vt 0.9333 0.0620 0.0000
vt 0.5299 0.0621 0.0000
vt 0.9800 0.5177 0.0000
vt 0.9456 0.4832 0.0000
vt 0.9387 0.4705 0.0000
vt 0.9379 0.0670 0.0000
vt 0.5272 0.4763 0.0000
vt 0.9306 0.4752 0.0000
vt 0.1328 0.6232 0.0000
vt 0.0312 0.5603 0.0000
vt 0.0312 0.6380 0.0000
vt 0.1072 0.5668 0.0000
vt 0.1607 0.6142 0.0000
vt 0.5330 0.0887 0.0000
vt 0.1564 0.6380 0.0000
vt 0.5347 0.4475 0.0000
vt 0.5505 0.4665 0.0000
vt 0.1347 0.5417 0.0000
vt 0.0807 0.6235 0.0000
vt 0.9093 0.4645 0.0000
vt 0.1625 0.5328 0.0000
vt 0.0560 0.5538 0.0000
vt 0.9283 0.4477 0.0000
vt 0.0523 0.5318 0.0000
vt 0.1315 0.7809 0.0000
vt 0.9266 0.0889 0.0000
vt 0.0312 0.6380 0.0000
vt 0.0993 0.7252 0.0000
vt 0.9107 0.0718 0.0000
vt 0.0312 0.5603 0.0000
vt 0.0797 0.7814 0.0000
vt 0.5519 0.0730 0.0000
vt 0.1395 0.7008 0.0000
vt 0.0555 0.6337 0.0000
vt 0.5255 0.0660 0.0000
vt 0.0540 0.7118 0.0000
vt 0.1052 0.5861 0.0000
vt 0.1395 0.5893 0.0000
vt 0.1704 0.6052 0.0000
vt 0.1820 0.6308 0.0000
vt 0.0521 0.6131 0.0000
vt 0.0311 0.6250 0.0000
vt 0.0508 0.6924 0.0000
vt 0.1729 0.6920 0.0000
vt 0.0312 0.5603 0.0000
vt 0.0312 0.5603 0.0000
vt 0.0311 0.7036 0.0000
vt 0.0423 0.6835 0.0000
vt 0.1665 0.7713 0.0000
vt 0.1534 0.7946 0.0000
vt 0.0312 0.6380 0.0000
vt 0.0312 0.6380 0.0000
vt 0.0550 0.7915 0.0000
vt 0.0517 0.7712 0.0000
vt 0.0311 0.5457 0.0000
vt 0.1582 0.5565 0.0000
vt 0.1072 0.5047 0.0000
vt 0.0429 0.5225 0.0000
vt 0.0743 0.5073 0.0000
vt 0.9337 0.0637 0.0000
vt 0.1414 0.5079 0.0000
vt 0.1722 0.5238 0.0000
vt 0.1838 0.5493 0.0000
vt 0.9361 0.4719 0.0000
vt 0.0722 0.6698 0.0000
vt 0.1594 0.7156 0.0000
vt 0.1000 0.6675 0.0000
vt 0.0430 0.6035 0.0000
vt 0.1032 0.7452 0.0000
vt 0.1356 0.7495 0.0000
vt 0.1695 0.7562 0.0000
vt 0.1437 0.6709 0.0000
vt 0.5279 0.4743 0.0000
vt 0.0749 0.5889 0.0000
vt 0.0311 0.7829 0.0000
vt 0.0428 0.7619 0.0000
vt 0.0741 0.7476 0.0000
vt 0.1759 0.6777 0.0000
# 92 texture coords

o floor20_low
g floor20_low
usemtl wire_135110008
s 2
f 1/1/1 3/2/2 4/3/3 
f 4/3/4 2/4/5 1/1/6 
s 8
f 1/1/7 2/4/8 6/9/9 
f 1/1/10 6/9/11 27/10/12 
f 1/1/13 27/10/14 13/11/15 
f 1/1/16 13/11/17 5/12/18 
s 16
f 2/4/19 4/13/20 8/14/21 
f 2/4/22 8/14/23 25/15/24 
f 2/4/25 25/15/26 23/16/27 
f 2/4/28 23/16/29 6/9/30 
s 32
f 4/13/31 3/17/32 7/18/33 
f 4/13/34 7/18/35 19/19/36 
f 4/13/37 19/19/38 21/20/39 
f 4/13/40 21/20/41 8/14/42 
s 64
f 3/17/43 1/1/44 5/12/45 
f 3/17/46 5/12/47 17/21/48 
f 3/17/49 17/21/50 15/22/51 
f 3/17/52 15/22/53 7/18/54 
s off
f 30/23/55 31/27/56 32/29/57 
f 32/29/58 29/5/59 30/23/60 
f 36/47/61 37/58/62 38/80/63 
f 38/80/64 35/42/65 36/47/66 
f 42/39/67 43/63/68 44/64/69 
f 44/64/70 41/8/71 42/39/72 
f 48/32/73 49/35/74 50/70/75 
f 50/70/76 47/26/77 48/32/78 
f 27/10/79 28/28/80 14/30/81 
f 14/30/82 13/11/83 27/10/84 
f 17/21/85 18/31/86 16/34/87 
f 16/34/88 15/22/89 17/21/90 
f 34/33/91 29/5/92 32/48/93 
f 32/48/94 33/55/95 34/33/96 
f 52/7/97 47/26/98 50/36/99 
f 50/36/100 51/38/101 52/7/102 
f 19/19/103 20/37/104 22/40/105 
f 22/40/106 21/20/107 19/19/108 
f 25/15/109 26/43/110 24/46/111 
f 24/46/112 23/16/113 25/15/114 
f 46/45/115 41/8/116 44/67/117 
f 44/67/118 45/68/119 46/45/120 
f 40/6/121 35/42/122 38/50/123 
f 38/50/124 39/57/125 40/6/126 
f 5/51/127 13/52/128 30/23/129 
f 30/23/130 29/5/131 5/51/132 
f 13/52/133 14/53/134 31/27/135 
f 31/27/136 30/23/137 13/52/138 
f 14/53/139 9/54/140 32/29/141 
f 32/29/142 31/27/143 14/53/144 
f 9/56/145 18/82/146 33/55/147 
f 33/55/148 32/48/149 9/56/150 
f 18/82/151 17/88/152 34/33/153 
f 34/33/154 33/55/155 18/82/156 
f 17/88/157 5/51/158 29/5/159 
f 29/5/160 34/33/161 17/88/162 
f 6/81/163 23/86/164 36/47/165 
f 36/47/166 35/42/167 6/81/168 
f 23/86/169 24/92/170 37/58/171 
f 37/58/172 36/47/173 23/86/174 
f 24/44/175 10/24/176 38/60/177 
f 38/60/178 37/59/179 24/44/180 
f 10/61/181 28/62/182 39/57/183 
f 39/57/184 38/50/185 10/61/186 
f 28/62/187 27/79/188 40/6/189 
f 40/6/190 39/57/191 28/62/192 
f 27/79/193 6/81/194 35/42/195 
f 35/42/196 40/6/197 27/79/198 
f 8/83/199 21/84/200 42/39/201 
f 42/39/202 41/8/203 8/83/204 
f 21/84/205 22/85/206 43/63/207 
f 43/63/208 42/39/209 21/84/210 
f 22/41/211 11/25/212 44/66/213 
f 44/66/214 43/65/215 22/41/216 
f 11/89/217 26/90/218 45/68/219 
f 45/68/220 44/67/221 11/89/222 
f 26/90/223 25/91/224 46/45/225 
f 46/45/226 45/68/227 26/90/228 
f 25/91/229 8/83/230 41/8/231 
f 41/8/232 46/45/233 25/91/234 
f 7/71/235 15/75/236 48/32/237 
f 48/32/238 47/26/239 7/71/240 
f 15/75/241 16/76/242 49/35/243 
f 49/35/244 48/32/245 15/75/246 
f 16/76/247 12/77/248 50/70/249 
f 50/70/250 49/35/251 16/76/252 
f 12/69/253 20/72/254 51/38/255 
f 51/38/256 50/36/257 12/69/258 
f 20/72/259 19/73/260 52/7/261 
f 52/7/262 51/38/263 20/72/264 
f 19/73/265 7/71/266 47/26/267 
f 47/26/268 52/7/269 19/73/270 
f 28/28/271 10/49/272 24/46/273 
f 14/30/274 28/28/275 24/46/276 
f 26/43/277 11/74/278 22/40/279 
f 24/46/280 26/43/281 22/40/282 
f 20/37/283 12/78/284 16/34/285 
f 22/40/286 20/37/287 16/34/288 
f 24/46/289 22/40/290 16/34/291 
f 14/30/292 24/46/293 16/34/294 
f 14/30/295 16/34/296 18/31/297 
f 14/30/298 18/31/299 9/87/300 
# 100 faces

