# 3ds Max Wavefront OBJ Exporter v0.97b - (c)2007 guruware
# File Created: 30.04.2019 17:28:18

mtllib orb_low.mtl

#
# object orb_low
#

v  0.0000 12.7244 -0.0000
v  -0.0000 11.7558 -4.8694
v  -1.8634 11.7558 -4.4987
v  -3.4432 11.7558 -3.4432
v  -4.4987 11.7558 -1.8634
v  -4.8694 11.7558 -0.0000
v  -4.4987 11.7558 1.8634
v  -3.4432 11.7558 3.4432
v  -1.8634 11.7558 4.4987
v  0.0000 11.7558 4.8694
v  1.8634 11.7558 4.4987
v  3.4432 11.7558 3.4432
v  4.4987 11.7558 1.8634
v  4.8694 11.7558 -0.0000
v  4.4987 11.7558 -1.8634
v  3.4432 11.7558 -3.4432
v  1.8634 11.7558 -4.4988
v  -3.4432 8.9975 -8.3126
v  -0.0000 8.9975 -8.9975
v  -6.3622 8.9975 -6.3622
v  -8.3126 8.9975 -3.4432
v  -8.9975 8.9975 -0.0000
v  -8.3126 8.9975 3.4432
v  -6.3622 8.9975 6.3622
v  -3.4432 8.9975 8.3126
v  0.0000 8.9975 8.9975
v  3.4432 8.9975 8.3126
v  6.3622 8.9975 6.3622
v  8.3126 8.9975 3.4432
v  8.9975 8.9975 -0.0000
v  8.3126 8.9975 -3.4432
v  6.3622 8.9975 -6.3622
v  3.4432 8.9975 -8.3126
v  -4.4987 4.8694 -10.8609
v  -0.0000 4.8694 -11.7558
v  -8.3126 4.8694 -8.3126
v  -10.8609 4.8694 -4.4987
v  -11.7558 4.8694 -0.0000
v  -10.8609 4.8694 4.4987
v  -8.3126 4.8694 8.3126
v  -4.4987 4.8694 10.8609
v  0.0000 4.8694 11.7558
v  4.4987 4.8694 10.8609
v  8.3126 4.8694 8.3126
v  10.8609 4.8694 4.4987
v  11.7558 4.8694 -0.0000
v  10.8609 4.8694 -4.4988
v  8.3126 4.8694 -8.3126
v  4.4987 4.8694 -10.8609
v  -4.8694 -0.0000 -11.7558
v  -0.0000 -0.0000 -12.7244
v  -8.9975 -0.0000 -8.9975
v  -11.7558 -0.0000 -4.8694
v  -12.7244 -0.0000 -0.0000
v  -11.7558 -0.0000 4.8694
v  -8.9975 -0.0000 8.9975
v  -4.8694 -0.0000 11.7558
v  0.0000 -0.0000 12.7244
v  4.8694 -0.0000 11.7558
v  8.9975 -0.0000 8.9975
v  11.7558 -0.0000 4.8694
v  12.7244 -0.0000 -0.0000
v  11.7558 -0.0000 -4.8694
v  8.9975 -0.0000 -8.9975
v  4.8694 -0.0000 -11.7558
v  -4.4987 -4.8694 -10.8609
v  -0.0000 -4.8694 -11.7558
v  -8.3126 -4.8694 -8.3126
v  -10.8609 -4.8694 -4.4987
v  -11.7558 -4.8694 -0.0000
v  -10.8609 -4.8694 4.4987
v  -8.3126 -4.8694 8.3126
v  -4.4987 -4.8694 10.8609
v  0.0000 -4.8694 11.7558
v  4.4987 -4.8694 10.8609
v  8.3126 -4.8694 8.3126
v  10.8609 -4.8694 4.4987
v  11.7558 -4.8694 -0.0000
v  10.8609 -4.8694 -4.4988
v  8.3126 -4.8694 -8.3126
v  4.4987 -4.8694 -10.8609
v  -3.4432 -8.9975 -8.3126
v  -0.0000 -8.9975 -8.9975
v  -6.3622 -8.9975 -6.3622
v  -8.3126 -8.9975 -3.4432
v  -8.9975 -8.9975 -0.0000
v  -8.3126 -8.9975 3.4432
v  -6.3622 -8.9975 6.3622
v  -3.4432 -8.9975 8.3126
v  0.0000 -8.9975 8.9975
v  3.4432 -8.9975 8.3126
v  6.3622 -8.9975 6.3622
v  8.3126 -8.9975 3.4432
v  8.9975 -8.9975 -0.0000
v  8.3126 -8.9975 -3.4432
v  6.3622 -8.9975 -6.3622
v  3.4432 -8.9975 -8.3126
v  -1.8634 -11.7558 -4.4987
v  -0.0000 -11.7558 -4.8694
v  -3.4432 -11.7558 -3.4432
v  -4.4987 -11.7558 -1.8634
v  -4.8694 -11.7558 -0.0000
v  -4.4987 -11.7558 1.8634
v  -3.4432 -11.7558 3.4432
v  -1.8634 -11.7558 4.4987
v  0.0000 -11.7558 4.8694
v  1.8634 -11.7558 4.4987
v  3.4432 -11.7558 3.4432
v  4.4987 -11.7558 1.8634
v  4.8694 -11.7558 -0.0000
v  4.4987 -11.7558 -1.8634
v  3.4432 -11.7558 -3.4432
v  1.8634 -11.7558 -4.4988
v  0.0000 -12.7244 -0.0000
# 114 vertices

vn -0.0000 1.0000 0.0000
vn -0.0000 0.9152 -0.4031
vn -0.1543 0.9152 -0.3724
vn -0.2850 0.9152 -0.2850
vn -0.3724 0.9152 -0.1543
vn -0.4031 0.9152 -0.0000
vn -0.3724 0.9152 0.1543
vn -0.2850 0.9152 0.2850
vn -0.1543 0.9152 0.3724
vn 0.0000 0.9152 0.4031
vn 0.1543 0.9152 0.3724
vn 0.2850 0.9152 0.2850
vn 0.3724 0.9152 0.1543
vn 0.4031 0.9152 -0.0000
vn 0.3724 0.9152 -0.1543
vn 0.2850 0.9152 -0.2850
vn 0.1543 0.9152 -0.3724
vn -0.2751 0.6952 -0.6641
vn -0.0000 0.6952 -0.7189
vn -0.5083 0.6952 -0.5083
vn -0.6641 0.6952 -0.2751
vn -0.7189 0.6952 -0.0000
vn -0.6641 0.6952 0.2751
vn -0.5083 0.6952 0.5083
vn -0.2751 0.6952 0.6641
vn 0.0000 0.6952 0.7189
vn 0.2751 0.6952 0.6641
vn 0.5083 0.6952 0.5083
vn 0.6641 0.6952 0.2751
vn 0.7189 0.6952 -0.0000
vn 0.6641 0.6952 -0.2751
vn 0.5083 0.6952 -0.5083
vn 0.2751 0.6952 -0.6641
vn -0.3549 0.3744 -0.8567
vn -0.0000 0.3744 -0.9273
vn -0.6557 0.3744 -0.6557
vn -0.8567 0.3744 -0.3549
vn -0.9273 0.3744 -0.0000
vn -0.8567 0.3744 0.3549
vn -0.6557 0.3744 0.6557
vn -0.3549 0.3744 0.8567
vn 0.0000 0.3744 0.9273
vn 0.3549 0.3744 0.8567
vn 0.6557 0.3744 0.6557
vn 0.8567 0.3744 0.3549
vn 0.9273 0.3744 -0.0000
vn 0.8567 0.3744 -0.3549
vn 0.6557 0.3744 -0.6557
vn 0.3549 0.3744 -0.8567
vn -0.3827 -0.0000 -0.9239
vn -0.0000 0.0000 -1.0000
vn -0.7071 0.0000 -0.7071
vn -0.9239 0.0000 -0.3827
vn -1.0000 0.0000 -0.0000
vn -0.9239 0.0000 0.3827
vn -0.7071 0.0000 0.7071
vn -0.3827 0.0000 0.9239
vn 0.0000 0.0000 1.0000
vn 0.3827 0.0000 0.9239
vn 0.7071 0.0000 0.7071
vn 0.9239 0.0000 0.3827
vn 1.0000 -0.0000 -0.0000
vn 0.9239 0.0000 -0.3827
vn 0.7071 0.0000 -0.7071
vn 0.3827 -0.0000 -0.9239
vn -0.3549 -0.3744 -0.8567
vn -0.0000 -0.3744 -0.9273
vn -0.6557 -0.3744 -0.6557
vn -0.8567 -0.3744 -0.3549
vn -0.9273 -0.3744 -0.0000
vn -0.8567 -0.3744 0.3549
vn -0.6557 -0.3744 0.6557
vn -0.3549 -0.3744 0.8567
vn 0.0000 -0.3744 0.9273
vn 0.3549 -0.3744 0.8567
vn 0.6557 -0.3744 0.6557
vn 0.8567 -0.3744 0.3549
vn 0.9273 -0.3744 -0.0000
vn 0.8567 -0.3744 -0.3549
vn 0.6557 -0.3744 -0.6557
vn 0.3549 -0.3744 -0.8567
vn -0.2751 -0.6952 -0.6641
vn -0.0000 -0.6952 -0.7189
vn -0.5083 -0.6952 -0.5083
vn -0.6641 -0.6952 -0.2751
vn -0.7189 -0.6952 -0.0000
vn -0.6641 -0.6952 0.2751
vn -0.5083 -0.6952 0.5083
vn -0.2751 -0.6952 0.6641
vn 0.0000 -0.6952 0.7189
vn 0.2751 -0.6952 0.6641
vn 0.5083 -0.6952 0.5083
vn 0.6641 -0.6952 0.2751
vn 0.7189 -0.6952 -0.0000
vn 0.6641 -0.6952 -0.2751
vn 0.5083 -0.6952 -0.5083
vn 0.2751 -0.6952 -0.6641
vn -0.1543 -0.9152 -0.3724
vn -0.0000 -0.9152 -0.4031
vn -0.2850 -0.9152 -0.2850
vn -0.3724 -0.9152 -0.1543
vn -0.4031 -0.9152 -0.0000
vn -0.3724 -0.9152 0.1543
vn -0.2850 -0.9152 0.2850
vn -0.1543 -0.9152 0.3724
vn 0.0000 -0.9152 0.4031
vn 0.1543 -0.9152 0.3724
vn 0.2850 -0.9152 0.2850
vn 0.3724 -0.9152 0.1543
vn 0.4031 -0.9152 -0.0000
vn 0.3724 -0.9152 -0.1543
vn 0.2850 -0.9152 -0.2850
vn 0.1543 -0.9152 -0.3724
vn 0.0000 -1.0000 0.0000
# 114 vertex normals

vt 0.4985 0.5965 0.0000
vt 0.3404 0.6212 0.0000
vt 0.3485 0.5897 0.0000
vt 0.3669 0.5668 0.0000
vt 0.3886 0.5493 0.0000
vt 0.4110 0.5358 0.0000
vt 0.4332 0.5257 0.0000
vt 0.4548 0.5188 0.0000
vt 0.4761 0.5148 0.0000
vt 0.4974 0.5138 0.0000
vt 0.5188 0.5156 0.0000
vt 0.5408 0.5205 0.0000
vt 0.5635 0.5286 0.0000
vt 0.5867 0.5400 0.0000
vt 0.6103 0.5545 0.0000
vt 0.6331 0.5724 0.0000
vt 0.6526 0.5951 0.0000
vt 0.6611 0.6262 0.0000
vt 0.2256 0.5461 0.0000
vt 0.1928 0.5951 0.0000
vt 0.2645 0.5137 0.0000
vt 0.3049 0.4897 0.0000
vt 0.3447 0.4713 0.0000
vt 0.3836 0.4575 0.0000
vt 0.4217 0.4477 0.0000
vt 0.4596 0.4419 0.0000
vt 0.4978 0.4405 0.0000
vt 0.5362 0.4434 0.0000
vt 0.5747 0.4506 0.0000
vt 0.6137 0.4618 0.0000
vt 0.6538 0.4768 0.0000
vt 0.6952 0.4954 0.0000
vt 0.7374 0.5185 0.0000
vt 0.7782 0.5491 0.0000
vt 0.8128 0.5965 0.0000
vt 0.1363 0.4541 0.0000
vt 0.0694 0.4926 0.0000
vt 0.1971 0.4295 0.0000
vt 0.2543 0.4120 0.0000
vt 0.3081 0.3991 0.0000
vt 0.3589 0.3903 0.0000
vt 0.4069 0.3841 0.0000
vt 0.4532 0.3812 0.0000
vt 0.4988 0.3809 0.0000
vt 0.5445 0.3831 0.0000
vt 0.5912 0.3879 0.0000
vt 0.6397 0.3952 0.0000
vt 0.6911 0.4048 0.0000
vt 0.7461 0.4167 0.0000
vt 0.8048 0.4315 0.0000
vt 0.8671 0.4522 0.0000
vt 0.9358 0.4872 0.0000
vt 0.1023 0.3315 0.0000
vt 0.0188 0.3339 0.0000
vt 0.1730 0.3290 0.0000
vt 0.2374 0.3271 0.0000
vt 0.2969 0.3263 0.0000
vt 0.3517 0.3267 0.0000
vt 0.4030 0.3270 0.0000
vt 0.4521 0.3279 0.0000
vt 0.4998 0.3290 0.0000
vt 0.5476 0.3300 0.0000
vt 0.5967 0.3311 0.0000
vt 0.6480 0.3315 0.0000
vt 0.7029 0.3319 0.0000
vt 0.7625 0.3312 0.0000
vt 0.8270 0.3295 0.0000
vt 0.8977 0.3272 0.0000
vt 0.9813 0.3250 0.0000
vt 0.1326 0.2066 0.0000
vt 0.0639 0.1719 0.0000
vt 0.1949 0.2271 0.0000
vt 0.2536 0.2418 0.0000
vt 0.3086 0.2535 0.0000
vt 0.3600 0.2630 0.0000
vt 0.4085 0.2701 0.0000
vt 0.4552 0.2749 0.0000
vt 0.5009 0.2771 0.0000
vt 0.5465 0.2768 0.0000
vt 0.5928 0.2738 0.0000
vt 0.6409 0.2677 0.0000
vt 0.6918 0.2589 0.0000
vt 0.7457 0.2462 0.0000
vt 0.8030 0.2287 0.0000
vt 0.8639 0.2043 0.0000
vt 0.9309 0.1660 0.0000
vt 0.2212 0.1096 0.0000
vt 0.1865 0.0623 0.0000
vt 0.2621 0.1401 0.0000
vt 0.3043 0.1630 0.0000
vt 0.3458 0.1815 0.0000
vt 0.3858 0.1963 0.0000
vt 0.4248 0.2074 0.0000
vt 0.4634 0.2146 0.0000
vt 0.5018 0.2175 0.0000
vt 0.5400 0.2160 0.0000
vt 0.5780 0.2103 0.0000
vt 0.6162 0.2004 0.0000
vt 0.6551 0.1866 0.0000
vt 0.6951 0.1683 0.0000
vt 0.7355 0.1443 0.0000
vt 0.7745 0.1119 0.0000
vt 0.8074 0.0630 0.0000
vt 0.3468 0.0633 0.0000
vt 0.3382 0.0322 0.0000
vt 0.3663 0.0859 0.0000
vt 0.3892 0.1037 0.0000
vt 0.4127 0.1181 0.0000
vt 0.4359 0.1294 0.0000
vt 0.4586 0.1375 0.0000
vt 0.4806 0.1424 0.0000
vt 0.5021 0.1442 0.0000
vt 0.5234 0.1431 0.0000
vt 0.5448 0.1391 0.0000
vt 0.5665 0.1322 0.0000
vt 0.5887 0.1221 0.0000
vt 0.6112 0.1086 0.0000
vt 0.6329 0.0911 0.0000
vt 0.6514 0.0682 0.0000
vt 0.6595 0.0368 0.0000
vt 0.5010 0.0615 0.0000
# 121 texture coords

o orb_low
g orb_low
usemtl wire_148177027
s 1
f 1/1/1 2/2/2 3/3/3 
f 1/1/1 3/3/3 4/4/4 
f 1/1/1 4/4/4 5/5/5 
f 1/1/1 5/5/5 6/6/6 
f 1/1/1 6/6/6 7/7/7 
f 1/1/1 7/7/7 8/8/8 
f 1/1/1 8/8/8 9/9/9 
f 1/1/1 9/9/9 10/10/10 
f 1/1/1 10/10/10 11/11/11 
f 1/1/1 11/11/11 12/12/12 
f 1/1/1 12/12/12 13/13/13 
f 1/1/1 13/13/13 14/14/14 
f 1/1/1 14/14/14 15/15/15 
f 1/1/1 15/15/15 16/16/16 
f 1/1/1 16/16/16 17/17/17 
f 1/1/1 17/17/17 2/18/2 
f 18/19/18 3/3/3 2/2/2 
f 2/2/2 19/20/19 18/19/18 
f 20/21/20 4/4/4 3/3/3 
f 3/3/3 18/19/18 20/21/20 
f 21/22/21 5/5/5 4/4/4 
f 4/4/4 20/21/20 21/22/21 
f 22/23/22 6/6/6 5/5/5 
f 5/5/5 21/22/21 22/23/22 
f 23/24/23 7/7/7 6/6/6 
f 6/6/6 22/23/22 23/24/23 
f 24/25/24 8/8/8 7/7/7 
f 7/7/7 23/24/23 24/25/24 
f 25/26/25 9/9/9 8/8/8 
f 8/8/8 24/25/24 25/26/25 
f 26/27/26 10/10/10 9/9/9 
f 9/9/9 25/26/25 26/27/26 
f 27/28/27 11/11/11 10/10/10 
f 10/10/10 26/27/26 27/28/27 
f 28/29/28 12/12/12 11/11/11 
f 11/11/11 27/28/27 28/29/28 
f 29/30/29 13/13/13 12/12/12 
f 12/12/12 28/29/28 29/30/29 
f 30/31/30 14/14/14 13/13/13 
f 13/13/13 29/30/29 30/31/30 
f 31/32/31 15/15/15 14/14/14 
f 14/14/14 30/31/30 31/32/31 
f 32/33/32 16/16/16 15/15/15 
f 15/15/15 31/32/31 32/33/32 
f 33/34/33 17/17/17 16/16/16 
f 16/16/16 32/33/32 33/34/33 
f 19/35/19 2/18/2 17/17/17 
f 17/17/17 33/34/33 19/35/19 
f 34/36/34 18/19/18 19/20/19 
f 19/20/19 35/37/35 34/36/34 
f 36/38/36 20/21/20 18/19/18 
f 18/19/18 34/36/34 36/38/36 
f 37/39/37 21/22/21 20/21/20 
f 20/21/20 36/38/36 37/39/37 
f 38/40/38 22/23/22 21/22/21 
f 21/22/21 37/39/37 38/40/38 
f 39/41/39 23/24/23 22/23/22 
f 22/23/22 38/40/38 39/41/39 
f 40/42/40 24/25/24 23/24/23 
f 23/24/23 39/41/39 40/42/40 
f 41/43/41 25/26/25 24/25/24 
f 24/25/24 40/42/40 41/43/41 
f 42/44/42 26/27/26 25/26/25 
f 25/26/25 41/43/41 42/44/42 
f 43/45/43 27/28/27 26/27/26 
f 26/27/26 42/44/42 43/45/43 
f 44/46/44 28/29/28 27/28/27 
f 27/28/27 43/45/43 44/46/44 
f 45/47/45 29/30/29 28/29/28 
f 28/29/28 44/46/44 45/47/45 
f 46/48/46 30/31/30 29/30/29 
f 29/30/29 45/47/45 46/48/46 
f 47/49/47 31/32/31 30/31/30 
f 30/31/30 46/48/46 47/49/47 
f 48/50/48 32/33/32 31/32/31 
f 31/32/31 47/49/47 48/50/48 
f 49/51/49 33/34/33 32/33/32 
f 32/33/32 48/50/48 49/51/49 
f 35/52/35 19/35/19 33/34/33 
f 33/34/33 49/51/49 35/52/35 
f 50/53/50 34/36/34 35/37/35 
f 35/37/35 51/54/51 50/53/50 
f 52/55/52 36/38/36 34/36/34 
f 34/36/34 50/53/50 52/55/52 
f 53/56/53 37/39/37 36/38/36 
f 36/38/36 52/55/52 53/56/53 
f 54/57/54 38/40/38 37/39/37 
f 37/39/37 53/56/53 54/57/54 
f 55/58/55 39/41/39 38/40/38 
f 38/40/38 54/57/54 55/58/55 
f 56/59/56 40/42/40 39/41/39 
f 39/41/39 55/58/55 56/59/56 
f 57/60/57 41/43/41 40/42/40 
f 40/42/40 56/59/56 57/60/57 
f 58/61/58 42/44/42 41/43/41 
f 41/43/41 57/60/57 58/61/58 
f 59/62/59 43/45/43 42/44/42 
f 42/44/42 58/61/58 59/62/59 
f 60/63/60 44/46/44 43/45/43 
f 43/45/43 59/62/59 60/63/60 
f 61/64/61 45/47/45 44/46/44 
f 44/46/44 60/63/60 61/64/61 
f 62/65/62 46/48/46 45/47/45 
f 45/47/45 61/64/61 62/65/62 
f 63/66/63 47/49/47 46/48/46 
f 46/48/46 62/65/62 63/66/63 
f 64/67/64 48/50/48 47/49/47 
f 47/49/47 63/66/63 64/67/64 
f 65/68/65 49/51/49 48/50/48 
f 48/50/48 64/67/64 65/68/65 
f 51/69/51 35/52/35 49/51/49 
f 49/51/49 65/68/65 51/69/51 
f 66/70/66 50/53/50 51/54/51 
f 51/54/51 67/71/67 66/70/66 
f 68/72/68 52/55/52 50/53/50 
f 50/53/50 66/70/66 68/72/68 
f 69/73/69 53/56/53 52/55/52 
f 52/55/52 68/72/68 69/73/69 
f 70/74/70 54/57/54 53/56/53 
f 53/56/53 69/73/69 70/74/70 
f 71/75/71 55/58/55 54/57/54 
f 54/57/54 70/74/70 71/75/71 
f 72/76/72 56/59/56 55/58/55 
f 55/58/55 71/75/71 72/76/72 
f 73/77/73 57/60/57 56/59/56 
f 56/59/56 72/76/72 73/77/73 
f 74/78/74 58/61/58 57/60/57 
f 57/60/57 73/77/73 74/78/74 
f 75/79/75 59/62/59 58/61/58 
f 58/61/58 74/78/74 75/79/75 
f 76/80/76 60/63/60 59/62/59 
f 59/62/59 75/79/75 76/80/76 
f 77/81/77 61/64/61 60/63/60 
f 60/63/60 76/80/76 77/81/77 
f 78/82/78 62/65/62 61/64/61 
f 61/64/61 77/81/77 78/82/78 
f 79/83/79 63/66/63 62/65/62 
f 62/65/62 78/82/78 79/83/79 
f 80/84/80 64/67/64 63/66/63 
f 63/66/63 79/83/79 80/84/80 
f 81/85/81 65/68/65 64/67/64 
f 64/67/64 80/84/80 81/85/81 
f 67/86/67 51/69/51 65/68/65 
f 65/68/65 81/85/81 67/86/67 
f 82/87/82 66/70/66 67/71/67 
f 67/71/67 83/88/83 82/87/82 
f 84/89/84 68/72/68 66/70/66 
f 66/70/66 82/87/82 84/89/84 
f 85/90/85 69/73/69 68/72/68 
f 68/72/68 84/89/84 85/90/85 
f 86/91/86 70/74/70 69/73/69 
f 69/73/69 85/90/85 86/91/86 
f 87/92/87 71/75/71 70/74/70 
f 70/74/70 86/91/86 87/92/87 
f 88/93/88 72/76/72 71/75/71 
f 71/75/71 87/92/87 88/93/88 
f 89/94/89 73/77/73 72/76/72 
f 72/76/72 88/93/88 89/94/89 
f 90/95/90 74/78/74 73/77/73 
f 73/77/73 89/94/89 90/95/90 
f 91/96/91 75/79/75 74/78/74 
f 74/78/74 90/95/90 91/96/91 
f 92/97/92 76/80/76 75/79/75 
f 75/79/75 91/96/91 92/97/92 
f 93/98/93 77/81/77 76/80/76 
f 76/80/76 92/97/92 93/98/93 
f 94/99/94 78/82/78 77/81/77 
f 77/81/77 93/98/93 94/99/94 
f 95/100/95 79/83/79 78/82/78 
f 78/82/78 94/99/94 95/100/95 
f 96/101/96 80/84/80 79/83/79 
f 79/83/79 95/100/95 96/101/96 
f 97/102/97 81/85/81 80/84/80 
f 80/84/80 96/101/96 97/102/97 
f 83/103/83 67/86/67 81/85/81 
f 81/85/81 97/102/97 83/103/83 
f 98/104/98 82/87/82 83/88/83 
f 83/88/83 99/105/99 98/104/98 
f 100/106/100 84/89/84 82/87/82 
f 82/87/82 98/104/98 100/106/100 
f 101/107/101 85/90/85 84/89/84 
f 84/89/84 100/106/100 101/107/101 
f 102/108/102 86/91/86 85/90/85 
f 85/90/85 101/107/101 102/108/102 
f 103/109/103 87/92/87 86/91/86 
f 86/91/86 102/108/102 103/109/103 
f 104/110/104 88/93/88 87/92/87 
f 87/92/87 103/109/103 104/110/104 
f 105/111/105 89/94/89 88/93/88 
f 88/93/88 104/110/104 105/111/105 
f 106/112/106 90/95/90 89/94/89 
f 89/94/89 105/111/105 106/112/106 
f 107/113/107 91/96/91 90/95/90 
f 90/95/90 106/112/106 107/113/107 
f 108/114/108 92/97/92 91/96/91 
f 91/96/91 107/113/107 108/114/108 
f 109/115/109 93/98/93 92/97/92 
f 92/97/92 108/114/108 109/115/109 
f 110/116/110 94/99/94 93/98/93 
f 93/98/93 109/115/109 110/116/110 
f 111/117/111 95/100/95 94/99/94 
f 94/99/94 110/116/110 111/117/111 
f 112/118/112 96/101/96 95/100/95 
f 95/100/95 111/117/111 112/118/112 
f 113/119/113 97/102/97 96/101/96 
f 96/101/96 112/118/112 113/119/113 
f 99/120/99 83/103/83 97/102/97 
f 97/102/97 113/119/113 99/120/99 
f 114/121/114 98/104/98 99/105/99 
f 114/121/114 100/106/100 98/104/98 
f 114/121/114 101/107/101 100/106/100 
f 114/121/114 102/108/102 101/107/101 
f 114/121/114 103/109/103 102/108/102 
f 114/121/114 104/110/104 103/109/103 
f 114/121/114 105/111/105 104/110/104 
f 114/121/114 106/112/106 105/111/105 
f 114/121/114 107/113/107 106/112/106 
f 114/121/114 108/114/108 107/113/107 
f 114/121/114 109/115/109 108/114/108 
f 114/121/114 110/116/110 109/115/109 
f 114/121/114 111/117/111 110/116/110 
f 114/121/114 112/118/112 111/117/111 
f 114/121/114 113/119/113 112/118/112 
f 114/121/114 99/120/99 113/119/113 
# 224 faces

