# 3ds Max Wavefront OBJ Exporter v0.97b - (c)2007 guruware
# File Created: 29.05.2019 15:12:15

#
# object Box004
#

v  -20.0000 0.0000 40.0000
v  -20.0000 0.0000 30.0000
v  -10.0000 4.6771 34.6771
v  -10.0000 4.6771 35.3229
v  -20.0000 10.0000 40.0000
v  -10.0000 5.3229 35.3229
v  -10.0000 5.3229 34.6771
v  -20.0000 10.0000 30.0000
# 8 vertices

vn 0.5517 -0.5898 0.5898
vn 0.5517 -0.5898 -0.5898
vn 0.7888 -0.4346 -0.4346
vn 0.7888 -0.4346 0.4346
vn 0.5517 0.5898 0.5898
vn 0.7888 0.4346 0.4346
vn 0.7888 0.4346 -0.4346
vn 0.5517 0.5898 -0.5898
# 8 vertex normals

vt 0.0010 0.0010 0.0000
vt 0.9990 0.0010 0.0000
vt 0.5322 0.4678 0.0000
vt 0.4678 0.4678 0.0000
vt 0.0010 0.9990 0.0000
vt 0.4678 0.5322 0.0000
vt 0.5322 0.5322 0.0000
vt 0.9990 0.9990 0.0000
# 8 texture coords

o Box004
g Box004
s 1
f 1/1/1 2/2/2 3/3/3 4/4/4 
f 5/5/5 6/6/6 7/7/7 8/8/8 
f 1/1/1 4/4/4 6/6/6 5/5/5 
f 4/4/4 3/3/3 7/7/7 6/6/6 
f 3/3/3 2/2/2 8/8/8 7/7/7 
# 5 polygons

