# 3ds Max Wavefront OBJ Exporter v0.97b - (c)2007 guruware
# File Created: 03.05.2019 18:12:10

mtllib brick_low.mtl

#
# object low_brick
#

v  -17.9234 0.0000 12.7567
v  -17.9234 0.0000 -12.7567
v  17.9234 0.0000 -12.7567
v  17.9234 0.0000 12.7567
v  -17.9234 5.8606 12.7567
v  17.9234 5.8606 12.7567
v  17.9234 5.8606 -12.7567
v  -17.9234 5.8606 -12.7567
# 8 vertices

vn 0.0000 -1.0000 -0.0000
vn 0.0000 1.0000 -0.0000
vn 0.0000 0.0000 1.0000
vn 1.0000 0.0000 -0.0000
vn 0.0000 0.0000 -1.0000
vn -1.0000 0.0000 -0.0000
# 6 vertex normals

vt 0.5744 0.3810 0.0000
vt 0.5744 0.0855 0.0000
vt 0.9787 0.0829 0.0000
vt 0.9800 0.3916 0.0000
vt 0.5054 0.3834 0.0000
vt 0.0880 0.3851 0.0000
vt 0.0880 0.0890 0.0000
vt 0.5054 0.0879 0.0000
vt 0.5042 0.4541 0.0000
vt 0.0886 0.4541 0.0000
vt 0.0200 0.3851 0.0000
vt 0.0200 0.0890 0.0000
vt 0.0902 0.0200 0.0000
vt 0.5054 0.0200 0.0000
# 14 texture coords

o low_brick
g low_brick
usemtl wire_086086086
s 2
f 1/1/1 2/2/1 3/3/1 
f 3/3/1 4/4/1 1/1/1 
s 4
f 5/5/2 6/6/2 7/7/2 
f 7/7/2 8/8/2 5/5/2 
s 8
f 1/9/3 4/10/3 6/6/3 
f 6/6/3 5/5/3 1/9/3 
s 16
f 4/11/4 3/12/4 7/7/4 
f 7/7/4 6/6/4 4/11/4 
s 32
f 3/13/5 2/14/5 8/8/5 
f 8/8/5 7/7/5 3/13/5 
s 64
f 2/2/6 1/1/6 5/5/6 
f 5/5/6 8/8/6 2/2/6 
# 12 faces

