# 3ds Max Wavefront OBJ Exporter v0.97b - (c)2007 guruware
# File Created: 06.05.2019 04:10:15

#
# object Cone001
#

v  19.7516 -33.5052 5.2924
v  17.7088 -33.5052 10.2242
v  14.4592 -33.5052 14.4592
v  10.2242 -33.5052 17.7088
v  5.2924 -33.5052 19.7516
v  -0.0000 -33.5052 20.4484
v  -5.2924 -33.5052 19.7516
v  -10.2242 -33.5052 17.7088
v  -14.4592 -33.5052 14.4592
v  -17.7088 -33.5052 10.2242
v  -19.7516 -33.5052 5.2924
v  -20.4484 -33.5052 -0.0000
v  -19.7516 -33.5052 -5.2924
v  -17.7088 -33.5052 -10.2242
v  -14.4592 -33.5052 -14.4592
v  -10.2242 -33.5052 -17.7088
v  -5.2924 -33.5052 -19.7516
v  0.0000 -33.5052 -20.4484
v  5.2924 -33.5052 -19.7516
v  10.2242 -33.5052 -17.7088
v  14.4592 -33.5052 -14.4592
v  17.7088 -33.5052 -10.2242
v  19.7516 -33.5052 -5.2924
v  20.4484 -33.5052 -0.0000
v  15.8013 -26.7784 -4.2339
v  16.3587 -26.7784 -0.0000
v  14.1670 -26.7784 -8.1793
v  11.5673 -26.7784 -11.5673
v  8.1793 -26.7784 -14.1670
v  4.2339 -26.7784 -15.8013
v  0.0000 -26.7784 -16.3587
v  -4.2339 -26.7784 -15.8013
v  -8.1793 -26.7784 -14.1670
v  -11.5673 -26.7784 -11.5673
v  -14.1670 -26.7784 -8.1793
v  -15.8013 -26.7784 -4.2339
v  -16.3587 -26.7784 -0.0000
v  -15.8013 -26.7784 4.2339
v  -14.1670 -26.7784 8.1793
v  -11.5673 -26.7784 11.5673
v  -8.1793 -26.7784 14.1670
v  -4.2339 -26.7784 15.8013
v  -0.0000 -26.7784 16.3587
v  4.2339 -26.7784 15.8013
v  8.1793 -26.7784 14.1670
v  11.5673 -26.7784 11.5673
v  14.1670 -26.7784 8.1794
v  15.8013 -26.7784 4.2340
v  11.8510 -20.0516 -3.1755
v  12.2690 -20.0516 -0.0000
v  10.6253 -20.0516 -6.1345
v  8.6755 -20.0516 -8.6755
v  6.1345 -20.0516 -10.6253
v  3.1755 -20.0516 -11.8510
v  0.0000 -20.0516 -12.2690
v  -3.1755 -20.0516 -11.8510
v  -6.1345 -20.0516 -10.6253
v  -8.6755 -20.0516 -8.6755
v  -10.6253 -20.0516 -6.1345
v  -11.8510 -20.0516 -3.1755
v  -12.2690 -20.0516 -0.0000
v  -11.8510 -20.0516 3.1754
v  -10.6253 -20.0516 6.1345
v  -8.6755 -20.0516 8.6755
v  -6.1345 -20.0516 10.6253
v  -3.1755 -20.0516 11.8510
v  -0.0000 -20.0516 12.2690
v  3.1754 -20.0516 11.8510
v  6.1345 -20.0516 10.6253
v  8.6755 -20.0516 8.6755
v  10.6253 -20.0516 6.1345
v  11.8510 -20.0516 3.1755
v  7.9006 -13.3248 -2.1170
v  8.1793 -13.3248 -0.0000
v  7.0835 -13.3248 -4.0897
v  5.7837 -13.3248 -5.7837
v  4.0897 -13.3248 -7.0835
v  2.1170 -13.3248 -7.9006
v  0.0000 -13.3248 -8.1793
v  -2.1170 -13.3248 -7.9006
v  -4.0897 -13.3248 -7.0835
v  -5.7837 -13.3248 -5.7837
v  -7.0835 -13.3248 -4.0897
v  -7.9006 -13.3248 -2.1170
v  -8.1793 -13.3248 -0.0000
v  -7.9006 -13.3248 2.1170
v  -7.0835 -13.3248 4.0897
v  -5.7837 -13.3248 5.7837
v  -4.0897 -13.3248 7.0835
v  -2.1170 -13.3248 7.9006
v  -0.0000 -13.3248 8.1793
v  2.1170 -13.3248 7.9006
v  4.0897 -13.3248 7.0835
v  5.7837 -13.3248 5.7837
v  7.0835 -13.3248 4.0897
v  7.9006 -13.3248 2.1170
v  3.9503 -6.5979 -1.0585
v  4.0897 -6.5979 -0.0000
v  3.5418 -6.5979 -2.0448
v  2.8918 -6.5979 -2.8918
v  2.0448 -6.5979 -3.5418
v  1.0585 -6.5979 -3.9503
v  0.0000 -6.5979 -4.0897
v  -1.0585 -6.5979 -3.9503
v  -2.0448 -6.5979 -3.5418
v  -2.8918 -6.5979 -2.8918
v  -3.5418 -6.5979 -2.0448
v  -3.9503 -6.5979 -1.0585
v  -4.0897 -6.5979 -0.0000
v  -3.9503 -6.5979 1.0585
v  -3.5418 -6.5979 2.0448
v  -2.8918 -6.5979 2.8918
v  -2.0448 -6.5979 3.5418
v  -1.0585 -6.5979 3.9503
v  -0.0000 -6.5979 4.0897
v  1.0585 -6.5979 3.9503
v  2.0448 -6.5979 3.5418
v  2.8918 -6.5979 2.8918
v  3.5418 -6.5979 2.0448
v  3.9503 -6.5979 1.0585
v  0.0000 0.1289 -0.0000
# 121 vertices

vn 0.8569 -0.4616 0.2296
vn 0.7682 -0.4616 0.4435
vn 0.6273 -0.4616 0.6273
vn 0.4435 -0.4616 0.7682
vn 0.2296 -0.4616 0.8569
vn -0.0000 -0.4616 0.8871
vn -0.2296 -0.4616 0.8569
vn -0.4435 -0.4616 0.7682
vn -0.6273 -0.4616 0.6273
vn -0.7682 -0.4616 0.4435
vn -0.8569 -0.4616 0.2296
vn -0.8871 -0.4616 -0.0000
vn -0.8569 -0.4616 -0.2296
vn -0.7682 -0.4616 -0.4435
vn -0.6273 -0.4616 -0.6273
vn -0.4435 -0.4616 -0.7682
vn -0.2296 -0.4616 -0.8569
vn 0.0000 -0.4616 -0.8871
vn 0.2296 -0.4616 -0.8569
vn 0.4435 -0.4616 -0.7682
vn 0.6273 -0.4616 -0.6273
vn 0.7682 -0.4616 -0.4435
vn 0.8569 -0.4616 -0.2296
vn 0.8871 -0.4616 0.0000
vn 0.8254 0.5195 -0.2212
vn 0.8545 0.5195 0.0000
vn 0.7400 0.5195 -0.4272
vn 0.6042 0.5195 -0.6042
vn 0.4272 0.5195 -0.7400
vn 0.2212 0.5195 -0.8254
vn 0.0000 0.5195 -0.8545
vn -0.2212 0.5195 -0.8254
vn -0.4272 0.5195 -0.7400
vn -0.6042 0.5195 -0.6042
vn -0.7400 0.5195 -0.4272
vn -0.8254 0.5195 -0.2212
vn -0.8545 0.5195 -0.0000
vn -0.8254 0.5195 0.2212
vn -0.7400 0.5195 0.4272
vn -0.6042 0.5195 0.6042
vn -0.4272 0.5195 0.7400
vn -0.2212 0.5195 0.8254
vn -0.0000 0.5195 0.8545
vn 0.2212 0.5195 0.8254
vn 0.4272 0.5195 0.7400
vn 0.6042 0.5195 0.6042
vn 0.7400 0.5195 0.4272
vn 0.8254 0.5195 0.2212
vn 1.0000 0.0000 -0.0000
# 49 vertex normals

vt 0.2787 0.0000 -0.1317
vt 0.1676 0.0000 -0.3860
vt 0.0792 0.0000 -0.6140
vt 0.0194 0.0000 -0.8002
vt -0.0076 0.0000 -0.9319
vt -0.0000 0.0000 -1.0000
vt 0.0417 0.0000 -1.0000
vt 0.1146 0.0000 -0.9319
vt 0.2137 0.0000 -0.8002
vt 0.3324 0.0000 -0.6140
vt 0.4625 0.0000 -0.3860
vt 0.5952 0.0000 -0.1317
vt 0.7213 0.0000 0.1317
vt 0.8324 0.0000 0.3860
vt 0.9208 0.0000 0.6140
vt 0.9806 0.0000 0.8002
vt 1.0076 0.0000 0.9319
vt 1.0000 0.0000 1.0000
vt 0.9583 0.0000 1.0000
vt 0.9167 0.0000 1.0000
vt 0.8750 0.0000 1.0000
vt 0.8333 0.0000 1.0000
vt 0.7917 0.0000 1.0000
vt 0.7500 0.0000 1.0000
vt 0.7917 0.2000 0.8000
vt 0.7500 0.2000 0.8000
vt 0.8333 0.2000 0.8000
vt 0.8750 0.2000 0.8000
vt 0.9167 0.2000 0.8000
vt 0.9583 0.2000 0.8000
vt 1.0000 0.2000 0.8000
vt 0.0000 0.0000 1.0000
vt 0.0417 0.0000 1.0000
vt 0.0417 0.2000 0.8000
vt 0.0000 0.2000 0.8000
vt 0.0833 0.0000 1.0000
vt 0.0833 0.2000 0.8000
vt 0.1250 0.0000 1.0000
vt 0.1250 0.2000 0.8000
vt 0.1667 0.0000 1.0000
vt 0.1667 0.2000 0.8000
vt 0.2083 0.0000 1.0000
vt 0.2083 0.2000 0.8000
vt 0.2500 0.0000 1.0000
vt 0.2500 0.2000 0.8000
vt 0.2917 0.0000 1.0000
vt 0.2917 0.2000 0.8000
vt 0.3333 0.0000 1.0000
vt 0.3333 0.2000 0.8000
vt 0.3750 0.0000 1.0000
vt 0.3750 0.2000 0.8000
vt 0.4167 0.0000 1.0000
vt 0.4167 0.2000 0.8000
vt 0.4583 0.0000 1.0000
vt 0.4583 0.2000 0.8000
vt 0.5000 0.0000 1.0000
vt 0.5000 0.2000 0.8000
vt 0.5417 0.0000 1.0000
vt 0.5417 0.2000 0.8000
vt 0.5833 0.0000 1.0000
vt 0.5833 0.2000 0.8000
vt 0.6250 0.0000 1.0000
vt 0.6250 0.2000 0.8000
vt 0.6667 0.0000 1.0000
vt 0.6667 0.2000 0.8000
vt 0.7083 0.0000 1.0000
vt 0.7083 0.2000 0.8000
vt 0.7917 0.4000 0.6000
vt 0.7500 0.4000 0.6000
vt 0.8333 0.4000 0.6000
vt 0.8750 0.4000 0.6000
vt 0.9167 0.4000 0.6000
vt 0.9583 0.4000 0.6000
vt 1.0000 0.4000 0.6000
vt 0.0417 0.4000 0.6000
vt 0.0000 0.4000 0.6000
vt 0.0833 0.4000 0.6000
vt 0.1250 0.4000 0.6000
vt 0.1667 0.4000 0.6000
vt 0.2083 0.4000 0.6000
vt 0.2500 0.4000 0.6000
vt 0.2917 0.4000 0.6000
vt 0.3333 0.4000 0.6000
vt 0.3750 0.4000 0.6000
vt 0.4167 0.4000 0.6000
vt 0.4583 0.4000 0.6000
vt 0.5000 0.4000 0.6000
vt 0.5417 0.4000 0.6000
vt 0.5833 0.4000 0.6000
vt 0.6250 0.4000 0.6000
vt 0.6667 0.4000 0.6000
vt 0.7083 0.4000 0.6000
vt 0.7917 0.6000 0.4000
vt 0.7500 0.6000 0.4000
vt 0.8333 0.6000 0.4000
vt 0.8750 0.6000 0.4000
vt 0.9167 0.6000 0.4000
vt 0.9583 0.6000 0.4000
vt 1.0000 0.6000 0.4000
vt 0.0417 0.6000 0.4000
vt 0.0000 0.6000 0.4000
vt 0.0833 0.6000 0.4000
vt 0.1250 0.6000 0.4000
vt 0.1667 0.6000 0.4000
vt 0.2083 0.6000 0.4000
vt 0.2500 0.6000 0.4000
vt 0.2917 0.6000 0.4000
vt 0.3333 0.6000 0.4000
vt 0.3750 0.6000 0.4000
vt 0.4167 0.6000 0.4000
vt 0.4583 0.6000 0.4000
vt 0.5000 0.6000 0.4000
vt 0.5417 0.6000 0.4000
vt 0.5833 0.6000 0.4000
vt 0.6250 0.6000 0.4000
vt 0.6667 0.6000 0.4000
vt 0.7083 0.6000 0.4000
vt 0.7917 0.8000 0.2000
vt 0.7500 0.8000 0.2000
vt 0.8333 0.8000 0.2000
vt 0.8750 0.8000 0.2000
vt 0.9167 0.8000 0.2000
vt 0.9583 0.8000 0.2000
vt 1.0000 0.8000 0.2000
vt 0.0417 0.8000 0.2000
vt 0.0000 0.8000 0.2000
vt 0.0833 0.8000 0.2000
vt 0.1250 0.8000 0.2000
vt 0.1667 0.8000 0.2000
vt 0.2083 0.8000 0.2000
vt 0.2500 0.8000 0.2000
vt 0.2917 0.8000 0.2000
vt 0.3333 0.8000 0.2000
vt 0.3750 0.8000 0.2000
vt 0.4167 0.8000 0.2000
vt 0.4583 0.8000 0.2000
vt 0.5000 0.8000 0.2000
vt 0.5417 0.8000 0.2000
vt 0.5833 0.8000 0.2000
vt 0.6250 0.8000 0.2000
vt 0.6667 0.8000 0.2000
vt 0.7083 0.8000 0.2000
vt 0.5000 1.0000 0.0000
# 143 texture coords

o Cone001
g Cone001
s 1
f 1/1/1 2/2/2 3/3/3 4/4/4 5/5/5 6/6/6 7/7/7 8/8/8 9/9/9 10/10/10 11/11/11 12/12/12 13/13/13 14/14/14 15/15/15 16/16/16 17/17/17 18/18/18 19/19/19 20/20/20 21/21/21 22/22/22 23/23/23 24/24/24 
s 8
f 24/24/24 23/23/23 25/25/25 26/26/26 
f 23/23/23 22/22/22 27/27/27 25/25/25 
f 22/22/22 21/21/21 28/28/28 27/27/27 
f 21/21/21 20/20/20 29/29/29 28/28/28 
f 20/20/20 19/19/19 30/30/30 29/29/29 
f 19/19/19 18/18/18 31/31/31 30/30/30 
f 18/32/18 17/33/17 32/34/32 31/35/31 
f 17/33/17 16/36/16 33/37/33 32/34/32 
f 16/36/16 15/38/15 34/39/34 33/37/33 
f 15/38/15 14/40/14 35/41/35 34/39/34 
f 14/40/14 13/42/13 36/43/36 35/41/35 
f 13/42/13 12/44/12 37/45/37 36/43/36 
f 12/44/12 11/46/11 38/47/38 37/45/37 
f 11/46/11 10/48/10 39/49/39 38/47/38 
f 10/48/10 9/50/9 40/51/40 39/49/39 
f 9/50/9 8/52/8 41/53/41 40/51/40 
f 8/52/8 7/54/7 42/55/42 41/53/41 
f 7/54/7 6/56/6 43/57/43 42/55/42 
f 6/56/6 5/58/5 44/59/44 43/57/43 
f 5/58/5 4/60/4 45/61/45 44/59/44 
f 4/60/4 3/62/3 46/63/46 45/61/45 
f 3/62/3 2/64/2 47/65/47 46/63/46 
f 2/64/2 1/66/1 48/67/48 47/65/47 
f 1/66/1 24/24/24 26/26/26 48/67/48 
f 26/26/26 25/25/25 49/68/25 50/69/26 
f 25/25/25 27/27/27 51/70/27 49/68/25 
f 27/27/27 28/28/28 52/71/28 51/70/27 
f 28/28/28 29/29/29 53/72/29 52/71/28 
f 29/29/29 30/30/30 54/73/30 53/72/29 
f 30/30/30 31/31/31 55/74/31 54/73/30 
f 31/35/31 32/34/32 56/75/32 55/76/31 
f 32/34/32 33/37/33 57/77/33 56/75/32 
f 33/37/33 34/39/34 58/78/34 57/77/33 
f 34/39/34 35/41/35 59/79/35 58/78/34 
f 35/41/35 36/43/36 60/80/36 59/79/35 
f 36/43/36 37/45/37 61/81/37 60/80/36 
f 37/45/37 38/47/38 62/82/38 61/81/37 
f 38/47/38 39/49/39 63/83/39 62/82/38 
f 39/49/39 40/51/40 64/84/40 63/83/39 
f 40/51/40 41/53/41 65/85/41 64/84/40 
f 41/53/41 42/55/42 66/86/42 65/85/41 
f 42/55/42 43/57/43 67/87/43 66/86/42 
f 43/57/43 44/59/44 68/88/44 67/87/43 
f 44/59/44 45/61/45 69/89/45 68/88/44 
f 45/61/45 46/63/46 70/90/46 69/89/45 
f 46/63/46 47/65/47 71/91/47 70/90/46 
f 47/65/47 48/67/48 72/92/48 71/91/47 
f 48/67/48 26/26/26 50/69/26 72/92/48 
f 50/69/26 49/68/25 73/93/25 74/94/26 
f 49/68/25 51/70/27 75/95/27 73/93/25 
f 51/70/27 52/71/28 76/96/28 75/95/27 
f 52/71/28 53/72/29 77/97/29 76/96/28 
f 53/72/29 54/73/30 78/98/30 77/97/29 
f 54/73/30 55/74/31 79/99/31 78/98/30 
f 55/76/31 56/75/32 80/100/32 79/101/31 
f 56/75/32 57/77/33 81/102/33 80/100/32 
f 57/77/33 58/78/34 82/103/34 81/102/33 
f 58/78/34 59/79/35 83/104/35 82/103/34 
f 59/79/35 60/80/36 84/105/36 83/104/35 
f 60/80/36 61/81/37 85/106/37 84/105/36 
f 61/81/37 62/82/38 86/107/38 85/106/37 
f 62/82/38 63/83/39 87/108/39 86/107/38 
f 63/83/39 64/84/40 88/109/40 87/108/39 
f 64/84/40 65/85/41 89/110/41 88/109/40 
f 65/85/41 66/86/42 90/111/42 89/110/41 
f 66/86/42 67/87/43 91/112/43 90/111/42 
f 67/87/43 68/88/44 92/113/44 91/112/43 
f 68/88/44 69/89/45 93/114/45 92/113/44 
f 69/89/45 70/90/46 94/115/46 93/114/45 
f 70/90/46 71/91/47 95/116/47 94/115/46 
f 71/91/47 72/92/48 96/117/48 95/116/47 
f 72/92/48 50/69/26 74/94/26 96/117/48 
f 74/94/26 73/93/25 97/118/25 98/119/26 
f 73/93/25 75/95/27 99/120/27 97/118/25 
f 75/95/27 76/96/28 100/121/28 99/120/27 
f 76/96/28 77/97/29 101/122/29 100/121/28 
f 77/97/29 78/98/30 102/123/30 101/122/29 
f 78/98/30 79/99/31 103/124/31 102/123/30 
f 79/101/31 80/100/32 104/125/32 103/126/31 
f 80/100/32 81/102/33 105/127/33 104/125/32 
f 81/102/33 82/103/34 106/128/34 105/127/33 
f 82/103/34 83/104/35 107/129/35 106/128/34 
f 83/104/35 84/105/36 108/130/36 107/129/35 
f 84/105/36 85/106/37 109/131/37 108/130/36 
f 85/106/37 86/107/38 110/132/38 109/131/37 
f 86/107/38 87/108/39 111/133/39 110/132/38 
f 87/108/39 88/109/40 112/134/40 111/133/39 
f 88/109/40 89/110/41 113/135/41 112/134/40 
f 89/110/41 90/111/42 114/136/42 113/135/41 
f 90/111/42 91/112/43 115/137/43 114/136/42 
f 91/112/43 92/113/44 116/138/44 115/137/43 
f 92/113/44 93/114/45 117/139/45 116/138/44 
f 93/114/45 94/115/46 118/140/46 117/139/45 
f 94/115/46 95/116/47 119/141/47 118/140/46 
f 95/116/47 96/117/48 120/142/48 119/141/47 
f 96/117/48 74/94/26 98/119/26 120/142/48 
f 98/119/26 97/118/25 121/143/49 121/143/49 
f 97/118/25 99/120/27 121/143/49 121/143/49 
f 99/120/27 100/121/28 121/143/49 121/143/49 
f 100/121/28 101/122/29 121/143/49 121/143/49 
f 101/122/29 102/123/30 121/143/49 121/143/49 
f 102/123/30 103/124/31 121/143/49 121/143/49 
f 103/126/31 104/125/32 121/143/49 121/143/49 
f 104/125/32 105/127/33 121/143/49 121/143/49 
f 105/127/33 106/128/34 121/143/49 121/143/49 
f 106/128/34 107/129/35 121/143/49 121/143/49 
f 107/129/35 108/130/36 121/143/49 121/143/49 
f 108/130/36 109/131/37 121/143/49 121/143/49 
f 109/131/37 110/132/38 121/143/49 121/143/49 
f 110/132/38 111/133/39 121/143/49 121/143/49 
f 111/133/39 112/134/40 121/143/49 121/143/49 
f 112/134/40 113/135/41 121/143/49 121/143/49 
f 113/135/41 114/136/42 121/143/49 121/143/49 
f 114/136/42 115/137/43 121/143/49 121/143/49 
f 115/137/43 116/138/44 121/143/49 121/143/49 
f 116/138/44 117/139/45 121/143/49 121/143/49 
f 117/139/45 118/140/46 121/143/49 121/143/49 
f 118/140/46 119/141/47 121/143/49 121/143/49 
f 119/141/47 120/142/48 121/143/49 121/143/49 
f 120/142/48 98/119/26 121/143/49 121/143/49 
s 1
f 121/143/49 121/143/49 121/143/49 121/143/49 121/143/49 121/143/49 121/143/49 121/143/49 121/143/49 121/143/49 121/143/49 121/143/49 121/143/49 121/143/49 121/143/49 121/143/49 121/143/49 121/143/49 121/143/49 121/143/49 121/143/49 121/143/49 121/143/49 121/143/49 
# 122 polygons

